<svg xmlns="http://www.w3.org/2000/svg" xmlns:xlink="http://www.w3.org/1999/xlink" width="1024" zoomAndPan="magnify" viewBox="0 0 768 576" height="768" preserveAspectRatio="xMidYMid meet" version="1.0"><defs><filter x="0%" y="0%" width="100%" height="100%" id="6707152d18"><feColorMatrix values="0 0 0 0 1 0 0 0 0 1 0 0 0 0 1 0 0 0 1 0" color-interpolation-filters="sRGB"/></filter><g/><clipPath id="5a5908daa3"><path d="M 277.5 87.269531 L 286.5 87.269531 L 286.5 96.269531 L 277.5 96.269531 Z M 277.5 87.269531 " clip-rule="nonzero"/></clipPath><clipPath id="b6044538d5"><path d="M 286.5 95.519531 L 286.5 88.019531 C 286.5 87.605469 286.167969 87.269531 285.75 87.269531 L 278.25 87.269531 C 277.835938 87.269531 277.5 87.605469 277.5 88.019531 L 277.5 95.519531 C 277.5 95.933594 277.835938 96.269531 278.25 96.269531 L 285.75 96.269531 C 286.167969 96.269531 286.5 95.933594 286.5 95.519531 " clip-rule="nonzero"/></clipPath><clipPath id="69cabff9ae"><path d="M 179.125 118.667969 L 611.125 118.667969 L 611.125 119.417969 L 179.125 119.417969 Z M 179.125 118.667969 " clip-rule="nonzero"/></clipPath><mask id="87e5500968"><g filter="url(#6707152d18)"><rect x="-76.8" width="921.6" fill="#000000" y="-57.6" height="691.2" fill-opacity="0.2471"/></g></mask><clipPath id="879f5d0728"><path d="M 0.125 0.667969 L 432.125 0.667969 L 432.125 1.417969 L 0.125 1.417969 Z M 0.125 0.667969 " clip-rule="nonzero"/></clipPath><clipPath id="0df3208031"><rect x="0" width="433" y="0" height="2"/></clipPath><clipPath id="0be26dc605"><path d="M 179.125 214.90625 L 611.125 214.90625 L 611.125 215.65625 L 179.125 215.65625 Z M 179.125 214.90625 " clip-rule="nonzero"/></clipPath><mask id="af8a36aa87"><g filter="url(#6707152d18)"><rect x="-76.8" width="921.6" fill="#000000" y="-57.6" height="691.2" fill-opacity="0.2471"/></g></mask><clipPath id="4a9fb42c75"><path d="M 0.125 0.90625 L 432.125 0.90625 L 432.125 1.65625 L 0.125 1.65625 Z M 0.125 0.90625 " clip-rule="nonzero"/></clipPath><clipPath id="28f185b3ea"><rect x="0" width="433" y="0" height="2"/></clipPath><clipPath id="ab6fa9db82"><path d="M 179.125 311.144531 L 611.125 311.144531 L 611.125 311.894531 L 179.125 311.894531 Z M 179.125 311.144531 " clip-rule="nonzero"/></clipPath><mask id="8fe356e31b"><g filter="url(#6707152d18)"><rect x="-76.8" width="921.6" fill="#000000" y="-57.6" height="691.2" fill-opacity="0.2471"/></g></mask><clipPath id="891e8c5b51"><path d="M 0.125 0.144531 L 432.125 0.144531 L 432.125 0.894531 L 0.125 0.894531 Z M 0.125 0.144531 " clip-rule="nonzero"/></clipPath><clipPath id="01d2e97949"><rect x="0" width="433" y="0" height="1"/></clipPath><clipPath id="4bb7ad9eb7"><path d="M 179.125 407.386719 L 611.125 407.386719 L 611.125 408.136719 L 179.125 408.136719 Z M 179.125 407.386719 " clip-rule="nonzero"/></clipPath><mask id="b718f1e633"><g filter="url(#6707152d18)"><rect x="-76.8" width="921.6" fill="#000000" y="-57.6" height="691.2" fill-opacity="0.2471"/></g></mask><clipPath id="be7eb68241"><path d="M 0.125 0.386719 L 432.125 0.386719 L 432.125 1.136719 L 0.125 1.136719 Z M 0.125 0.386719 " clip-rule="nonzero"/></clipPath><clipPath id="aab0cef0ca"><rect x="0" width="433" y="0" height="2"/></clipPath><clipPath id="9a1fa38468"><path d="M 179.125 503.625 L 611.125 503.625 L 611.125 504.375 L 179.125 504.375 Z M 179.125 503.625 " clip-rule="nonzero"/></clipPath><mask id="c3ada0348a"><g filter="url(#6707152d18)"><rect x="-76.8" width="921.6" fill="#000000" y="-57.6" height="691.2" fill-opacity="0.6"/></g></mask><clipPath id="a3ccc247cd"><path d="M 0.125 0.625 L 432.125 0.625 L 432.125 1.375 L 0.125 1.375 Z M 0.125 0.625 " clip-rule="nonzero"/></clipPath><clipPath id="43ca06c41d"><rect x="0" width="433" y="0" height="2"/></clipPath><clipPath id="f8d2f3f9b6"><path d="M 179.125 139.839844 L 308.875 139.839844 L 308.875 504 L 179.125 504 Z M 179.125 139.839844 " clip-rule="nonzero"/></clipPath><clipPath id="6d06941122"><path d="M 179.125 504 L 179.125 150.207031 C 179.125 147.457031 180.21875 144.820312 182.164062 142.878906 C 184.109375 140.933594 186.746094 139.839844 189.496094 139.839844 L 298.359375 139.839844 C 301.109375 139.839844 303.746094 140.933594 305.691406 142.878906 C 307.632812 144.820312 308.726562 147.457031 308.726562 150.207031 L 308.726562 504 L 179.125 504 " clip-rule="nonzero"/></clipPath><clipPath id="d4803fd18d"><path d="M 330 274.089844 L 460 274.089844 L 460 504 L 330 504 Z M 330 274.089844 " clip-rule="nonzero"/></clipPath><clipPath id="10c681ee6c"><path d="M 330.328125 504 L 330.328125 284.945312 C 330.328125 279.21875 334.96875 274.574219 340.695312 274.574219 L 449.558594 274.574219 C 452.308594 274.574219 454.945312 275.667969 456.890625 277.613281 C 458.835938 279.554688 459.925781 282.195312 459.925781 284.945312 L 459.925781 504 L 330.328125 504 " clip-rule="nonzero"/></clipPath><clipPath id="33a2da349a"><path d="M 481.375 159 L 611.125 159 L 611.125 504 L 481.375 504 Z M 481.375 159 " clip-rule="nonzero"/></clipPath><clipPath id="c459c4045a"><path d="M 481.527344 504 L 481.527344 169.457031 C 481.527344 163.730469 486.167969 159.089844 491.894531 159.089844 L 600.757812 159.089844 C 606.484375 159.089844 611.125 163.730469 611.125 169.457031 L 611.125 504 L 481.527344 504 " clip-rule="nonzero"/></clipPath></defs><g fill="#000000" fill-opacity="1"><g transform="translate(295.501922, 96.642746)"><g><path d="M 6.1875 -9.953125 C 4.96875 -9.953125 4.019531 -9.5625 3.34375 -8.78125 C 2.664062 -8 2.328125 -6.925781 2.328125 -5.5625 C 2.328125 -4.207031 2.679688 -3.117188 3.390625 -2.296875 C 4.097656 -1.484375 5.050781 -1.078125 6.25 -1.078125 C 7.789062 -1.078125 8.953125 -1.835938 9.734375 -3.359375 L 10.953125 -2.75 C 10.492188 -1.800781 9.851562 -1.078125 9.03125 -0.578125 C 8.21875 -0.0859375 7.269531 0.15625 6.1875 0.15625 C 5.070312 0.15625 4.109375 -0.0703125 3.296875 -0.53125 C 2.492188 -1 1.878906 -1.660156 1.453125 -2.515625 C 1.023438 -3.367188 0.8125 -4.382812 0.8125 -5.5625 C 0.8125 -7.3125 1.285156 -8.679688 2.234375 -9.671875 C 3.179688 -10.671875 4.492188 -11.171875 6.171875 -11.171875 C 7.347656 -11.171875 8.328125 -10.941406 9.109375 -10.484375 C 9.898438 -10.023438 10.476562 -9.347656 10.84375 -8.453125 L 9.4375 -7.984375 C 9.175781 -8.617188 8.765625 -9.101562 8.203125 -9.4375 C 7.640625 -9.78125 6.96875 -9.953125 6.1875 -9.953125 Z M 6.1875 -9.953125 "/></g></g></g><g fill="#000000" fill-opacity="1"><g transform="translate(307.053794, 96.642746)"><g><path d="M 9.828125 -7.703125 C 9.828125 -6.660156 9.488281 -5.832031 8.8125 -5.21875 C 8.132812 -4.601562 7.210938 -4.296875 6.046875 -4.296875 L 2.8125 -4.296875 L 2.8125 0 L 1.3125 0 L 1.3125 -11.015625 L 5.953125 -11.015625 C 7.179688 -11.015625 8.132812 -10.722656 8.8125 -10.140625 C 9.488281 -9.566406 9.828125 -8.753906 9.828125 -7.703125 Z M 8.328125 -7.6875 C 8.328125 -9.101562 7.472656 -9.8125 5.765625 -9.8125 L 2.8125 -9.8125 L 2.8125 -5.46875 L 5.828125 -5.46875 C 7.492188 -5.46875 8.328125 -6.207031 8.328125 -7.6875 Z M 8.328125 -7.6875 "/></g></g></g><g fill="#000000" fill-opacity="1"><g transform="translate(317.723063, 96.642746)"><g><path d="M 5.71875 0.15625 C 4.8125 0.15625 4.019531 -0.00390625 3.34375 -0.328125 C 2.675781 -0.660156 2.15625 -1.140625 1.78125 -1.765625 C 1.414062 -2.390625 1.234375 -3.132812 1.234375 -4 L 1.234375 -11.015625 L 2.734375 -11.015625 L 2.734375 -4.125 C 2.734375 -3.125 2.988281 -2.363281 3.5 -1.84375 C 4.007812 -1.320312 4.742188 -1.0625 5.703125 -1.0625 C 6.691406 -1.0625 7.460938 -1.328125 8.015625 -1.859375 C 8.566406 -2.398438 8.84375 -3.191406 8.84375 -4.234375 L 8.84375 -11.015625 L 10.328125 -11.015625 L 10.328125 -4.140625 C 10.328125 -3.253906 10.132812 -2.488281 9.75 -1.84375 C 9.375 -1.195312 8.84375 -0.703125 8.15625 -0.359375 C 7.46875 -0.015625 6.65625 0.15625 5.71875 0.15625 Z M 5.71875 0.15625 "/></g></g></g><g fill="#000000" fill-opacity="1"><g transform="translate(329.274935, 96.642746)"><g/></g></g><g fill="#000000" fill-opacity="1"><g transform="translate(333.719167, 96.642746)"><g><path d="M 5.625 -9.796875 L 5.625 0 L 4.140625 0 L 4.140625 -9.796875 L 0.359375 -9.796875 L 0.359375 -11.015625 L 9.40625 -11.015625 L 9.40625 -9.796875 Z M 5.625 -9.796875 "/></g></g></g><g fill="#000000" fill-opacity="1"><g transform="translate(343.490224, 96.642746)"><g><path d="M 1.078125 -10.25 L 1.078125 -11.59375 L 2.484375 -11.59375 L 2.484375 -10.25 Z M 1.078125 0 L 1.078125 -8.453125 L 2.484375 -8.453125 L 2.484375 0 Z M 1.078125 0 "/></g></g></g><g fill="#000000" fill-opacity="1"><g transform="translate(347.044049, 96.642746)"><g><path d="M 2.15625 -4.265625 C 2.15625 -3.140625 2.332031 -2.304688 2.6875 -1.765625 C 3.039062 -1.222656 3.570312 -0.953125 4.28125 -0.953125 C 4.78125 -0.953125 5.195312 -1.085938 5.53125 -1.359375 C 5.875 -1.628906 6.082031 -2.046875 6.15625 -2.609375 L 7.578125 -2.515625 C 7.472656 -1.703125 7.128906 -1.050781 6.546875 -0.5625 C 5.960938 -0.0820312 5.222656 0.15625 4.328125 0.15625 C 3.140625 0.15625 2.234375 -0.21875 1.609375 -0.96875 C 0.992188 -1.71875 0.6875 -2.804688 0.6875 -4.234375 C 0.6875 -5.660156 1 -6.742188 1.625 -7.484375 C 2.25 -8.234375 3.144531 -8.609375 4.3125 -8.609375 C 5.175781 -8.609375 5.890625 -8.382812 6.453125 -7.9375 C 7.023438 -7.488281 7.382812 -6.875 7.53125 -6.09375 L 6.09375 -5.984375 C 6.019531 -6.453125 5.832031 -6.820312 5.53125 -7.09375 C 5.238281 -7.375 4.816406 -7.515625 4.265625 -7.515625 C 3.523438 -7.515625 2.988281 -7.265625 2.65625 -6.765625 C 2.320312 -6.273438 2.15625 -5.441406 2.15625 -4.265625 Z M 2.15625 -4.265625 "/></g></g></g><g fill="#000000" fill-opacity="1"><g transform="translate(355.042096, 96.642746)"><g><path d="M 6.375 0 L 3.515625 -3.859375 L 2.484375 -3.015625 L 2.484375 0 L 1.078125 0 L 1.078125 -11.59375 L 2.484375 -11.59375 L 2.484375 -4.359375 L 6.203125 -8.453125 L 7.84375 -8.453125 L 4.421875 -4.828125 L 8.03125 0 Z M 6.375 0 "/></g></g></g><g fill="#000000" fill-opacity="1"><g transform="translate(363.040142, 96.642746)"><g><path d="M 7.421875 -2.34375 C 7.421875 -1.539062 7.117188 -0.921875 6.515625 -0.484375 C 5.921875 -0.0546875 5.082031 0.15625 4 0.15625 C 2.945312 0.15625 2.132812 -0.015625 1.5625 -0.359375 C 0.988281 -0.710938 0.617188 -1.253906 0.453125 -1.984375 L 1.6875 -2.234375 C 1.8125 -1.773438 2.0625 -1.441406 2.4375 -1.234375 C 2.8125 -1.023438 3.332031 -0.921875 4 -0.921875 C 4.707031 -0.921875 5.226562 -1.03125 5.5625 -1.25 C 5.894531 -1.46875 6.0625 -1.796875 6.0625 -2.234375 C 6.0625 -2.566406 5.945312 -2.835938 5.71875 -3.046875 C 5.488281 -3.253906 5.117188 -3.425781 4.609375 -3.5625 L 3.59375 -3.828125 C 2.789062 -4.035156 2.21875 -4.238281 1.875 -4.4375 C 1.53125 -4.632812 1.257812 -4.875 1.0625 -5.15625 C 0.875 -5.445312 0.78125 -5.800781 0.78125 -6.21875 C 0.78125 -6.988281 1.054688 -7.578125 1.609375 -7.984375 C 2.160156 -8.390625 2.960938 -8.59375 4.015625 -8.59375 C 4.941406 -8.59375 5.679688 -8.425781 6.234375 -8.09375 C 6.785156 -7.769531 7.132812 -7.242188 7.28125 -6.515625 L 6.015625 -6.359375 C 5.929688 -6.734375 5.71875 -7.019531 5.375 -7.21875 C 5.039062 -7.425781 4.585938 -7.53125 4.015625 -7.53125 C 3.378906 -7.53125 2.910156 -7.429688 2.609375 -7.234375 C 2.304688 -7.046875 2.15625 -6.753906 2.15625 -6.359375 C 2.15625 -6.117188 2.21875 -5.921875 2.34375 -5.765625 C 2.46875 -5.609375 2.648438 -5.472656 2.890625 -5.359375 C 3.140625 -5.253906 3.65625 -5.109375 4.4375 -4.921875 C 5.1875 -4.734375 5.722656 -4.554688 6.046875 -4.390625 C 6.378906 -4.234375 6.640625 -4.054688 6.828125 -3.859375 C 7.015625 -3.671875 7.160156 -3.453125 7.265625 -3.203125 C 7.367188 -2.953125 7.421875 -2.664062 7.421875 -2.34375 Z M 7.421875 -2.34375 "/></g></g></g><g fill="#000000" fill-opacity="1"><g transform="translate(371.038189, 96.642746)"><g/></g></g><g fill="#000000" fill-opacity="1"><g transform="translate(375.482422, 96.642746)"><g><path d="M 1 -4.15625 C 1 -5.664062 1.234375 -7.019531 1.703125 -8.21875 C 2.171875 -9.414062 2.894531 -10.539062 3.875 -11.59375 L 5.234375 -11.59375 C 4.265625 -10.507812 3.550781 -9.359375 3.09375 -8.140625 C 2.632812 -6.921875 2.40625 -5.585938 2.40625 -4.140625 C 2.40625 -2.703125 2.628906 -1.375 3.078125 -0.15625 C 3.535156 1.0625 4.253906 2.21875 5.234375 3.3125 L 3.875 3.3125 C 2.894531 2.25 2.171875 1.117188 1.703125 -0.078125 C 1.234375 -1.285156 1 -2.632812 1 -4.125 Z M 1 -4.15625 "/></g></g></g><g fill="#000000" fill-opacity="1"><g transform="translate(380.809246, 96.642746)"><g><path d="M 1.078125 0 L 1.078125 -11.59375 L 2.484375 -11.59375 L 2.484375 0 Z M 1.078125 0 "/></g></g></g><g fill="#000000" fill-opacity="1"><g transform="translate(384.363071, 96.642746)"><g><path d="M 8.234375 -4.234375 C 8.234375 -2.753906 7.90625 -1.648438 7.25 -0.921875 C 6.601562 -0.203125 5.660156 0.15625 4.421875 0.15625 C 3.179688 0.15625 2.242188 -0.21875 1.609375 -0.96875 C 0.984375 -1.726562 0.671875 -2.816406 0.671875 -4.234375 C 0.671875 -7.148438 1.9375 -8.609375 4.46875 -8.609375 C 5.757812 -8.609375 6.707031 -8.253906 7.3125 -7.546875 C 7.925781 -6.835938 8.234375 -5.734375 8.234375 -4.234375 Z M 6.75 -4.234375 C 6.75 -5.398438 6.578125 -6.25 6.234375 -6.78125 C 5.890625 -7.3125 5.304688 -7.578125 4.484375 -7.578125 C 3.660156 -7.578125 3.066406 -7.304688 2.703125 -6.765625 C 2.335938 -6.222656 2.15625 -5.378906 2.15625 -4.234375 C 2.15625 -3.117188 2.332031 -2.28125 2.6875 -1.71875 C 3.050781 -1.164062 3.625 -0.890625 4.40625 -0.890625 C 5.25 -0.890625 5.847656 -1.160156 6.203125 -1.703125 C 6.566406 -2.242188 6.75 -3.085938 6.75 -4.234375 Z M 6.75 -4.234375 "/></g></g></g><g fill="#000000" fill-opacity="1"><g transform="translate(393.259341, 96.642746)"><g><path d="M 9.171875 0 L 7.546875 0 L 6.0625 -5.984375 L 5.78125 -7.296875 C 5.738281 -7.066406 5.664062 -6.726562 5.5625 -6.28125 C 5.46875 -5.84375 4.9375 -3.75 3.96875 0 L 2.34375 0 L -0.03125 -8.453125 L 1.375 -8.453125 L 2.796875 -2.71875 C 2.835938 -2.59375 2.953125 -2.078125 3.140625 -1.171875 L 3.265625 -1.75 L 5.03125 -8.453125 L 6.546875 -8.453125 L 8.015625 -2.65625 L 8.375 -1.171875 L 8.625 -2.25 L 10.21875 -8.453125 L 11.59375 -8.453125 Z M 9.171875 0 "/></g></g></g><g fill="#000000" fill-opacity="1"><g transform="translate(404.811213, 96.642746)"><g><path d="M 2.15625 -3.9375 C 2.15625 -2.96875 2.351562 -2.21875 2.75 -1.6875 C 3.15625 -1.164062 3.742188 -0.90625 4.515625 -0.90625 C 5.128906 -0.90625 5.617188 -1.023438 5.984375 -1.265625 C 6.347656 -1.515625 6.597656 -1.828125 6.734375 -2.203125 L 7.96875 -1.84375 C 7.457031 -0.507812 6.304688 0.15625 4.515625 0.15625 C 3.265625 0.15625 2.3125 -0.210938 1.65625 -0.953125 C 1.007812 -1.703125 0.6875 -2.8125 0.6875 -4.28125 C 0.6875 -5.675781 1.007812 -6.742188 1.65625 -7.484375 C 2.3125 -8.234375 3.25 -8.609375 4.46875 -8.609375 C 6.945312 -8.609375 8.1875 -7.113281 8.1875 -4.125 L 8.1875 -3.9375 Z M 6.734375 -5.015625 C 6.660156 -5.898438 6.4375 -6.546875 6.0625 -6.953125 C 5.6875 -7.367188 5.144531 -7.578125 4.4375 -7.578125 C 3.757812 -7.578125 3.21875 -7.347656 2.8125 -6.890625 C 2.414062 -6.429688 2.203125 -5.804688 2.171875 -5.015625 Z M 6.734375 -5.015625 "/></g></g></g><g fill="#000000" fill-opacity="1"><g transform="translate(413.707483, 96.642746)"><g><path d="M 1.109375 0 L 1.109375 -6.484375 C 1.109375 -7.078125 1.09375 -7.734375 1.0625 -8.453125 L 2.390625 -8.453125 C 2.429688 -7.492188 2.453125 -6.921875 2.453125 -6.734375 L 2.484375 -6.734375 C 2.710938 -7.453125 2.972656 -7.941406 3.265625 -8.203125 C 3.554688 -8.472656 3.96875 -8.609375 4.5 -8.609375 C 4.6875 -8.609375 4.875 -8.582031 5.0625 -8.53125 L 5.0625 -7.25 C 4.875 -7.300781 4.625 -7.328125 4.3125 -7.328125 C 3.726562 -7.328125 3.28125 -7.070312 2.96875 -6.5625 C 2.664062 -6.0625 2.515625 -5.34375 2.515625 -4.40625 L 2.515625 0 Z M 1.109375 0 "/></g></g></g><g fill="#000000" fill-opacity="1"><g transform="translate(419.034307, 96.642746)"><g/></g></g><g fill="#000000" fill-opacity="1"><g transform="translate(423.47854, 96.642746)"><g><path d="M 1.078125 -10.25 L 1.078125 -11.59375 L 2.484375 -11.59375 L 2.484375 -10.25 Z M 1.078125 0 L 1.078125 -8.453125 L 2.484375 -8.453125 L 2.484375 0 Z M 1.078125 0 "/></g></g></g><g fill="#000000" fill-opacity="1"><g transform="translate(427.032365, 96.642746)"><g><path d="M 7.421875 -2.34375 C 7.421875 -1.539062 7.117188 -0.921875 6.515625 -0.484375 C 5.921875 -0.0546875 5.082031 0.15625 4 0.15625 C 2.945312 0.15625 2.132812 -0.015625 1.5625 -0.359375 C 0.988281 -0.710938 0.617188 -1.253906 0.453125 -1.984375 L 1.6875 -2.234375 C 1.8125 -1.773438 2.0625 -1.441406 2.4375 -1.234375 C 2.8125 -1.023438 3.332031 -0.921875 4 -0.921875 C 4.707031 -0.921875 5.226562 -1.03125 5.5625 -1.25 C 5.894531 -1.46875 6.0625 -1.796875 6.0625 -2.234375 C 6.0625 -2.566406 5.945312 -2.835938 5.71875 -3.046875 C 5.488281 -3.253906 5.117188 -3.425781 4.609375 -3.5625 L 3.59375 -3.828125 C 2.789062 -4.035156 2.21875 -4.238281 1.875 -4.4375 C 1.53125 -4.632812 1.257812 -4.875 1.0625 -5.15625 C 0.875 -5.445312 0.78125 -5.800781 0.78125 -6.21875 C 0.78125 -6.988281 1.054688 -7.578125 1.609375 -7.984375 C 2.160156 -8.390625 2.960938 -8.59375 4.015625 -8.59375 C 4.941406 -8.59375 5.679688 -8.425781 6.234375 -8.09375 C 6.785156 -7.769531 7.132812 -7.242188 7.28125 -6.515625 L 6.015625 -6.359375 C 5.929688 -6.734375 5.71875 -7.019531 5.375 -7.21875 C 5.039062 -7.425781 4.585938 -7.53125 4.015625 -7.53125 C 3.378906 -7.53125 2.910156 -7.429688 2.609375 -7.234375 C 2.304688 -7.046875 2.15625 -6.753906 2.15625 -6.359375 C 2.15625 -6.117188 2.21875 -5.921875 2.34375 -5.765625 C 2.46875 -5.609375 2.648438 -5.472656 2.890625 -5.359375 C 3.140625 -5.253906 3.65625 -5.109375 4.4375 -4.921875 C 5.1875 -4.734375 5.722656 -4.554688 6.046875 -4.390625 C 6.378906 -4.234375 6.640625 -4.054688 6.828125 -3.859375 C 7.015625 -3.671875 7.160156 -3.453125 7.265625 -3.203125 C 7.367188 -2.953125 7.421875 -2.664062 7.421875 -2.34375 Z M 7.421875 -2.34375 "/></g></g></g><g fill="#000000" fill-opacity="1"><g transform="translate(435.030412, 96.642746)"><g/></g></g><g fill="#000000" fill-opacity="1"><g transform="translate(439.474645, 96.642746)"><g><path d="M 8.234375 -4.265625 C 8.234375 -1.316406 7.195312 0.15625 5.125 0.15625 C 4.476562 0.15625 3.941406 0.0390625 3.515625 -0.1875 C 3.097656 -0.425781 2.753906 -0.800781 2.484375 -1.3125 L 2.46875 -1.3125 C 2.46875 -1.15625 2.457031 -0.910156 2.4375 -0.578125 C 2.414062 -0.242188 2.398438 -0.0507812 2.390625 0 L 1.03125 0 C 1.0625 -0.28125 1.078125 -0.863281 1.078125 -1.75 L 1.078125 -11.59375 L 2.484375 -11.59375 L 2.484375 -8.296875 C 2.484375 -7.953125 2.472656 -7.550781 2.453125 -7.09375 L 2.484375 -7.09375 C 2.742188 -7.632812 3.085938 -8.019531 3.515625 -8.25 C 3.953125 -8.488281 4.488281 -8.609375 5.125 -8.609375 C 6.1875 -8.609375 6.96875 -8.25 7.46875 -7.53125 C 7.976562 -6.8125 8.234375 -5.722656 8.234375 -4.265625 Z M 6.75 -4.21875 C 6.75 -5.40625 6.59375 -6.253906 6.28125 -6.765625 C 5.96875 -7.273438 5.460938 -7.53125 4.765625 -7.53125 C 3.972656 -7.53125 3.394531 -7.257812 3.03125 -6.71875 C 2.664062 -6.175781 2.484375 -5.316406 2.484375 -4.140625 C 2.484375 -3.023438 2.660156 -2.203125 3.015625 -1.671875 C 3.367188 -1.148438 3.945312 -0.890625 4.75 -0.890625 C 5.457031 -0.890625 5.96875 -1.148438 6.28125 -1.671875 C 6.59375 -2.191406 6.75 -3.039062 6.75 -4.21875 Z M 6.75 -4.21875 "/></g></g></g><g fill="#000000" fill-opacity="1"><g transform="translate(448.370915, 96.642746)"><g><path d="M 2.15625 -3.9375 C 2.15625 -2.96875 2.351562 -2.21875 2.75 -1.6875 C 3.15625 -1.164062 3.742188 -0.90625 4.515625 -0.90625 C 5.128906 -0.90625 5.617188 -1.023438 5.984375 -1.265625 C 6.347656 -1.515625 6.597656 -1.828125 6.734375 -2.203125 L 7.96875 -1.84375 C 7.457031 -0.507812 6.304688 0.15625 4.515625 0.15625 C 3.265625 0.15625 2.3125 -0.210938 1.65625 -0.953125 C 1.007812 -1.703125 0.6875 -2.8125 0.6875 -4.28125 C 0.6875 -5.675781 1.007812 -6.742188 1.65625 -7.484375 C 2.3125 -8.234375 3.25 -8.609375 4.46875 -8.609375 C 6.945312 -8.609375 8.1875 -7.113281 8.1875 -4.125 L 8.1875 -3.9375 Z M 6.734375 -5.015625 C 6.660156 -5.898438 6.4375 -6.546875 6.0625 -6.953125 C 5.6875 -7.367188 5.144531 -7.578125 4.4375 -7.578125 C 3.757812 -7.578125 3.21875 -7.347656 2.8125 -6.890625 C 2.414062 -6.429688 2.203125 -5.804688 2.171875 -5.015625 Z M 6.734375 -5.015625 "/></g></g></g><g fill="#000000" fill-opacity="1"><g transform="translate(457.267185, 96.642746)"><g><path d="M 4.328125 -0.0625 C 3.867188 0.0625 3.394531 0.125 2.90625 0.125 C 1.78125 0.125 1.21875 -0.515625 1.21875 -1.796875 L 1.21875 -7.4375 L 0.25 -7.4375 L 0.25 -8.453125 L 1.28125 -8.453125 L 1.6875 -10.34375 L 2.625 -10.34375 L 2.625 -8.453125 L 4.1875 -8.453125 L 4.1875 -7.4375 L 2.625 -7.4375 L 2.625 -2.09375 C 2.625 -1.6875 2.691406 -1.398438 2.828125 -1.234375 C 2.960938 -1.078125 3.191406 -1 3.515625 -1 C 3.703125 -1 3.972656 -1.035156 4.328125 -1.109375 Z M 4.328125 -0.0625 "/></g></g></g><g fill="#000000" fill-opacity="1"><g transform="translate(461.711418, 96.642746)"><g><path d="M 4.328125 -0.0625 C 3.867188 0.0625 3.394531 0.125 2.90625 0.125 C 1.78125 0.125 1.21875 -0.515625 1.21875 -1.796875 L 1.21875 -7.4375 L 0.25 -7.4375 L 0.25 -8.453125 L 1.28125 -8.453125 L 1.6875 -10.34375 L 2.625 -10.34375 L 2.625 -8.453125 L 4.1875 -8.453125 L 4.1875 -7.4375 L 2.625 -7.4375 L 2.625 -2.09375 C 2.625 -1.6875 2.691406 -1.398438 2.828125 -1.234375 C 2.960938 -1.078125 3.191406 -1 3.515625 -1 C 3.703125 -1 3.972656 -1.035156 4.328125 -1.109375 Z M 4.328125 -0.0625 "/></g></g></g><g fill="#000000" fill-opacity="1"><g transform="translate(466.155651, 96.642746)"><g><path d="M 2.15625 -3.9375 C 2.15625 -2.96875 2.351562 -2.21875 2.75 -1.6875 C 3.15625 -1.164062 3.742188 -0.90625 4.515625 -0.90625 C 5.128906 -0.90625 5.617188 -1.023438 5.984375 -1.265625 C 6.347656 -1.515625 6.597656 -1.828125 6.734375 -2.203125 L 7.96875 -1.84375 C 7.457031 -0.507812 6.304688 0.15625 4.515625 0.15625 C 3.265625 0.15625 2.3125 -0.210938 1.65625 -0.953125 C 1.007812 -1.703125 0.6875 -2.8125 0.6875 -4.28125 C 0.6875 -5.675781 1.007812 -6.742188 1.65625 -7.484375 C 2.3125 -8.234375 3.25 -8.609375 4.46875 -8.609375 C 6.945312 -8.609375 8.1875 -7.113281 8.1875 -4.125 L 8.1875 -3.9375 Z M 6.734375 -5.015625 C 6.660156 -5.898438 6.4375 -6.546875 6.0625 -6.953125 C 5.6875 -7.367188 5.144531 -7.578125 4.4375 -7.578125 C 3.757812 -7.578125 3.21875 -7.347656 2.8125 -6.890625 C 2.414062 -6.429688 2.203125 -5.804688 2.171875 -5.015625 Z M 6.734375 -5.015625 "/></g></g></g><g fill="#000000" fill-opacity="1"><g transform="translate(475.051921, 96.642746)"><g><path d="M 1.109375 0 L 1.109375 -6.484375 C 1.109375 -7.078125 1.09375 -7.734375 1.0625 -8.453125 L 2.390625 -8.453125 C 2.429688 -7.492188 2.453125 -6.921875 2.453125 -6.734375 L 2.484375 -6.734375 C 2.710938 -7.453125 2.972656 -7.941406 3.265625 -8.203125 C 3.554688 -8.472656 3.96875 -8.609375 4.5 -8.609375 C 4.6875 -8.609375 4.875 -8.582031 5.0625 -8.53125 L 5.0625 -7.25 C 4.875 -7.300781 4.625 -7.328125 4.3125 -7.328125 C 3.726562 -7.328125 3.28125 -7.070312 2.96875 -6.5625 C 2.664062 -6.0625 2.515625 -5.34375 2.515625 -4.40625 L 2.515625 0 Z M 1.109375 0 "/></g></g></g><g fill="#000000" fill-opacity="1"><g transform="translate(480.378745, 96.642746)"><g><path d="M 4.34375 -4.125 C 4.34375 -2.625 4.101562 -1.269531 3.625 -0.0625 C 3.15625 1.132812 2.429688 2.257812 1.453125 3.3125 L 0.09375 3.3125 C 1.070312 2.21875 1.785156 1.066406 2.234375 -0.140625 C 2.691406 -1.359375 2.921875 -2.691406 2.921875 -4.140625 C 2.921875 -5.597656 2.691406 -6.929688 2.234375 -8.140625 C 1.785156 -9.359375 1.070312 -10.507812 0.09375 -11.59375 L 1.453125 -11.59375 C 2.441406 -10.53125 3.171875 -9.398438 3.640625 -8.203125 C 4.109375 -7.003906 4.34375 -5.65625 4.34375 -4.15625 Z M 4.34375 -4.125 "/></g></g></g><g clip-path="url(#5a5908daa3)"><g clip-path="url(#b6044538d5)"><path fill="#79bf7f" d="M 277.5 87.269531 L 286.5 87.269531 L 286.5 96.269531 L 277.5 96.269531 Z M 277.5 87.269531 " fill-opacity="1" fill-rule="nonzero"/></g></g><g fill="#000000" fill-opacity="1"><g transform="translate(211.463648, 526.150006)"><g><path d="M 9.9375 -3.046875 C 9.9375 -2.023438 9.539062 -1.234375 8.75 -0.671875 C 7.957031 -0.117188 6.835938 0.15625 5.390625 0.15625 C 2.710938 0.15625 1.160156 -0.773438 0.734375 -2.640625 L 2.171875 -2.9375 C 2.335938 -2.269531 2.691406 -1.78125 3.234375 -1.46875 C 3.773438 -1.164062 4.515625 -1.015625 5.453125 -1.015625 C 6.410156 -1.015625 7.148438 -1.175781 7.671875 -1.5 C 8.203125 -1.832031 8.46875 -2.320312 8.46875 -2.96875 C 8.46875 -3.320312 8.382812 -3.609375 8.21875 -3.828125 C 8.050781 -4.054688 7.816406 -4.242188 7.515625 -4.390625 C 7.222656 -4.535156 6.867188 -4.65625 6.453125 -4.75 C 6.046875 -4.851562 5.59375 -4.960938 5.09375 -5.078125 C 4.226562 -5.273438 3.566406 -5.46875 3.109375 -5.65625 C 2.660156 -5.851562 2.304688 -6.066406 2.046875 -6.296875 C 1.785156 -6.535156 1.585938 -6.8125 1.453125 -7.125 C 1.316406 -7.445312 1.25 -7.816406 1.25 -8.234375 C 1.25 -9.171875 1.609375 -9.894531 2.328125 -10.40625 C 3.046875 -10.914062 4.078125 -11.171875 5.421875 -11.171875 C 6.671875 -11.171875 7.625 -10.976562 8.28125 -10.59375 C 8.945312 -10.21875 9.414062 -9.566406 9.6875 -8.640625 L 8.21875 -8.390625 C 8.050781 -8.972656 7.738281 -9.394531 7.28125 -9.65625 C 6.832031 -9.914062 6.207031 -10.046875 5.40625 -10.046875 C 4.53125 -10.046875 3.859375 -9.898438 3.390625 -9.609375 C 2.929688 -9.316406 2.703125 -8.882812 2.703125 -8.3125 C 2.703125 -7.96875 2.789062 -7.6875 2.96875 -7.46875 C 3.144531 -7.25 3.398438 -7.0625 3.734375 -6.90625 C 4.078125 -6.75 4.753906 -6.5625 5.765625 -6.34375 C 6.109375 -6.257812 6.445312 -6.175781 6.78125 -6.09375 C 7.113281 -6.019531 7.429688 -5.925781 7.734375 -5.8125 C 8.046875 -5.695312 8.335938 -5.5625 8.609375 -5.40625 C 8.878906 -5.257812 9.113281 -5.078125 9.3125 -4.859375 C 9.507812 -4.640625 9.660156 -4.378906 9.765625 -4.078125 C 9.878906 -3.785156 9.9375 -3.441406 9.9375 -3.046875 Z M 9.9375 -3.046875 "/></g></g></g><g fill="#000000" fill-opacity="1"><g transform="translate(222.132917, 526.150006)"><g><path d="M 4.328125 -0.0625 C 3.867188 0.0625 3.394531 0.125 2.90625 0.125 C 1.78125 0.125 1.21875 -0.515625 1.21875 -1.796875 L 1.21875 -7.4375 L 0.25 -7.4375 L 0.25 -8.453125 L 1.28125 -8.453125 L 1.6875 -10.34375 L 2.625 -10.34375 L 2.625 -8.453125 L 4.1875 -8.453125 L 4.1875 -7.4375 L 2.625 -7.4375 L 2.625 -2.09375 C 2.625 -1.6875 2.691406 -1.398438 2.828125 -1.234375 C 2.960938 -1.078125 3.191406 -1 3.515625 -1 C 3.703125 -1 3.972656 -1.035156 4.328125 -1.109375 Z M 4.328125 -0.0625 "/></g></g></g><g fill="#000000" fill-opacity="1"><g transform="translate(226.577149, 526.150006)"><g><path d="M 3.234375 0.15625 C 2.390625 0.15625 1.753906 -0.0664062 1.328125 -0.515625 C 0.898438 -0.960938 0.6875 -1.578125 0.6875 -2.359375 C 0.6875 -3.234375 0.972656 -3.90625 1.546875 -4.375 C 2.117188 -4.84375 3.046875 -5.09375 4.328125 -5.125 L 6.234375 -5.15625 L 6.234375 -5.625 C 6.234375 -6.3125 6.085938 -6.800781 5.796875 -7.09375 C 5.503906 -7.394531 5.046875 -7.546875 4.421875 -7.546875 C 3.785156 -7.546875 3.320312 -7.4375 3.03125 -7.21875 C 2.75 -7.007812 2.582031 -6.671875 2.53125 -6.203125 L 1.0625 -6.328125 C 1.300781 -7.847656 2.429688 -8.609375 4.453125 -8.609375 C 5.515625 -8.609375 6.3125 -8.363281 6.84375 -7.875 C 7.382812 -7.394531 7.65625 -6.691406 7.65625 -5.765625 L 7.65625 -2.125 C 7.65625 -1.707031 7.707031 -1.394531 7.8125 -1.1875 C 7.925781 -0.976562 8.132812 -0.875 8.4375 -0.875 C 8.570312 -0.875 8.726562 -0.890625 8.90625 -0.921875 L 8.90625 -0.046875 C 8.550781 0.0351562 8.1875 0.078125 7.8125 0.078125 C 7.289062 0.078125 6.910156 -0.0546875 6.671875 -0.328125 C 6.441406 -0.609375 6.3125 -1.039062 6.28125 -1.625 L 6.234375 -1.625 C 5.867188 -0.976562 5.445312 -0.519531 4.96875 -0.25 C 4.5 0.0195312 3.921875 0.15625 3.234375 0.15625 Z M 3.5625 -0.90625 C 4.070312 -0.90625 4.523438 -1.019531 4.921875 -1.25 C 5.328125 -1.488281 5.644531 -1.8125 5.875 -2.21875 C 6.113281 -2.625 6.234375 -3.046875 6.234375 -3.484375 L 6.234375 -4.171875 L 4.6875 -4.140625 C 4.03125 -4.128906 3.53125 -4.0625 3.1875 -3.9375 C 2.84375 -3.8125 2.578125 -3.617188 2.390625 -3.359375 C 2.210938 -3.097656 2.125 -2.757812 2.125 -2.34375 C 2.125 -1.882812 2.25 -1.53125 2.5 -1.28125 C 2.75 -1.03125 3.101562 -0.90625 3.5625 -0.90625 Z M 3.5625 -0.90625 "/></g></g></g><g fill="#000000" fill-opacity="1"><g transform="translate(235.47342, 526.150006)"><g><path d="M 6.453125 0 L 6.453125 -5.359375 C 6.453125 -5.921875 6.394531 -6.351562 6.28125 -6.65625 C 6.175781 -6.96875 6.003906 -7.191406 5.765625 -7.328125 C 5.523438 -7.460938 5.171875 -7.53125 4.703125 -7.53125 C 4.023438 -7.53125 3.488281 -7.296875 3.09375 -6.828125 C 2.707031 -6.367188 2.515625 -5.726562 2.515625 -4.90625 L 2.515625 0 L 1.109375 0 L 1.109375 -6.65625 C 1.109375 -7.632812 1.09375 -8.234375 1.0625 -8.453125 L 2.390625 -8.453125 C 2.398438 -8.429688 2.40625 -8.363281 2.40625 -8.25 C 2.414062 -8.132812 2.421875 -8 2.421875 -7.84375 C 2.429688 -7.695312 2.441406 -7.421875 2.453125 -7.015625 L 2.484375 -7.015625 C 2.804688 -7.597656 3.175781 -8.007812 3.59375 -8.25 C 4.019531 -8.488281 4.550781 -8.609375 5.1875 -8.609375 C 6.113281 -8.609375 6.789062 -8.378906 7.21875 -7.921875 C 7.644531 -7.460938 7.859375 -6.703125 7.859375 -5.640625 L 7.859375 0 Z M 6.453125 0 "/></g></g></g><g fill="#000000" fill-opacity="1"><g transform="translate(244.36969, 526.150006)"><g><path d="M 6.421875 -1.359375 C 6.160156 -0.816406 5.8125 -0.425781 5.375 -0.1875 C 4.945312 0.0390625 4.414062 0.15625 3.78125 0.15625 C 2.71875 0.15625 1.929688 -0.203125 1.421875 -0.921875 C 0.921875 -1.640625 0.671875 -2.726562 0.671875 -4.1875 C 0.671875 -7.132812 1.707031 -8.609375 3.78125 -8.609375 C 4.425781 -8.609375 4.960938 -8.488281 5.390625 -8.25 C 5.816406 -8.019531 6.160156 -7.648438 6.421875 -7.140625 L 6.4375 -7.140625 L 6.421875 -8.09375 L 6.421875 -11.59375 L 7.828125 -11.59375 L 7.828125 -1.75 C 7.828125 -0.863281 7.84375 -0.28125 7.875 0 L 6.53125 0 C 6.507812 -0.0820312 6.488281 -0.273438 6.46875 -0.578125 C 6.457031 -0.878906 6.453125 -1.140625 6.453125 -1.359375 Z M 2.15625 -4.234375 C 2.15625 -3.054688 2.3125 -2.210938 2.625 -1.703125 C 2.9375 -1.191406 3.441406 -0.9375 4.140625 -0.9375 C 4.941406 -0.9375 5.519531 -1.210938 5.875 -1.765625 C 6.238281 -2.316406 6.421875 -3.171875 6.421875 -4.328125 C 6.421875 -5.453125 6.238281 -6.273438 5.875 -6.796875 C 5.519531 -7.316406 4.945312 -7.578125 4.15625 -7.578125 C 3.445312 -7.578125 2.9375 -7.3125 2.625 -6.78125 C 2.3125 -6.257812 2.15625 -5.410156 2.15625 -4.234375 Z M 2.15625 -4.234375 "/></g></g></g><g fill="#000000" fill-opacity="1"><g transform="translate(253.26596, 526.150006)"><g><path d="M 3.234375 0.15625 C 2.390625 0.15625 1.753906 -0.0664062 1.328125 -0.515625 C 0.898438 -0.960938 0.6875 -1.578125 0.6875 -2.359375 C 0.6875 -3.234375 0.972656 -3.90625 1.546875 -4.375 C 2.117188 -4.84375 3.046875 -5.09375 4.328125 -5.125 L 6.234375 -5.15625 L 6.234375 -5.625 C 6.234375 -6.3125 6.085938 -6.800781 5.796875 -7.09375 C 5.503906 -7.394531 5.046875 -7.546875 4.421875 -7.546875 C 3.785156 -7.546875 3.320312 -7.4375 3.03125 -7.21875 C 2.75 -7.007812 2.582031 -6.671875 2.53125 -6.203125 L 1.0625 -6.328125 C 1.300781 -7.847656 2.429688 -8.609375 4.453125 -8.609375 C 5.515625 -8.609375 6.3125 -8.363281 6.84375 -7.875 C 7.382812 -7.394531 7.65625 -6.691406 7.65625 -5.765625 L 7.65625 -2.125 C 7.65625 -1.707031 7.707031 -1.394531 7.8125 -1.1875 C 7.925781 -0.976562 8.132812 -0.875 8.4375 -0.875 C 8.570312 -0.875 8.726562 -0.890625 8.90625 -0.921875 L 8.90625 -0.046875 C 8.550781 0.0351562 8.1875 0.078125 7.8125 0.078125 C 7.289062 0.078125 6.910156 -0.0546875 6.671875 -0.328125 C 6.441406 -0.609375 6.3125 -1.039062 6.28125 -1.625 L 6.234375 -1.625 C 5.867188 -0.976562 5.445312 -0.519531 4.96875 -0.25 C 4.5 0.0195312 3.921875 0.15625 3.234375 0.15625 Z M 3.5625 -0.90625 C 4.070312 -0.90625 4.523438 -1.019531 4.921875 -1.25 C 5.328125 -1.488281 5.644531 -1.8125 5.875 -2.21875 C 6.113281 -2.625 6.234375 -3.046875 6.234375 -3.484375 L 6.234375 -4.171875 L 4.6875 -4.140625 C 4.03125 -4.128906 3.53125 -4.0625 3.1875 -3.9375 C 2.84375 -3.8125 2.578125 -3.617188 2.390625 -3.359375 C 2.210938 -3.097656 2.125 -2.757812 2.125 -2.34375 C 2.125 -1.882812 2.25 -1.53125 2.5 -1.28125 C 2.75 -1.03125 3.101562 -0.90625 3.5625 -0.90625 Z M 3.5625 -0.90625 "/></g></g></g><g fill="#000000" fill-opacity="1"><g transform="translate(262.162231, 526.150006)"><g><path d="M 1.109375 0 L 1.109375 -6.484375 C 1.109375 -7.078125 1.09375 -7.734375 1.0625 -8.453125 L 2.390625 -8.453125 C 2.429688 -7.492188 2.453125 -6.921875 2.453125 -6.734375 L 2.484375 -6.734375 C 2.710938 -7.453125 2.972656 -7.941406 3.265625 -8.203125 C 3.554688 -8.472656 3.96875 -8.609375 4.5 -8.609375 C 4.6875 -8.609375 4.875 -8.582031 5.0625 -8.53125 L 5.0625 -7.25 C 4.875 -7.300781 4.625 -7.328125 4.3125 -7.328125 C 3.726562 -7.328125 3.28125 -7.070312 2.96875 -6.5625 C 2.664062 -6.0625 2.515625 -5.34375 2.515625 -4.40625 L 2.515625 0 Z M 1.109375 0 "/></g></g></g><g fill="#000000" fill-opacity="1"><g transform="translate(267.489055, 526.150006)"><g><path d="M 6.421875 -1.359375 C 6.160156 -0.816406 5.8125 -0.425781 5.375 -0.1875 C 4.945312 0.0390625 4.414062 0.15625 3.78125 0.15625 C 2.71875 0.15625 1.929688 -0.203125 1.421875 -0.921875 C 0.921875 -1.640625 0.671875 -2.726562 0.671875 -4.1875 C 0.671875 -7.132812 1.707031 -8.609375 3.78125 -8.609375 C 4.425781 -8.609375 4.960938 -8.488281 5.390625 -8.25 C 5.816406 -8.019531 6.160156 -7.648438 6.421875 -7.140625 L 6.4375 -7.140625 L 6.421875 -8.09375 L 6.421875 -11.59375 L 7.828125 -11.59375 L 7.828125 -1.75 C 7.828125 -0.863281 7.84375 -0.28125 7.875 0 L 6.53125 0 C 6.507812 -0.0820312 6.488281 -0.273438 6.46875 -0.578125 C 6.457031 -0.878906 6.453125 -1.140625 6.453125 -1.359375 Z M 2.15625 -4.234375 C 2.15625 -3.054688 2.3125 -2.210938 2.625 -1.703125 C 2.9375 -1.191406 3.441406 -0.9375 4.140625 -0.9375 C 4.941406 -0.9375 5.519531 -1.210938 5.875 -1.765625 C 6.238281 -2.316406 6.421875 -3.171875 6.421875 -4.328125 C 6.421875 -5.453125 6.238281 -6.273438 5.875 -6.796875 C 5.519531 -7.316406 4.945312 -7.578125 4.15625 -7.578125 C 3.445312 -7.578125 2.9375 -7.3125 2.625 -6.78125 C 2.3125 -6.257812 2.15625 -5.410156 2.15625 -4.234375 Z M 2.15625 -4.234375 "/></g></g></g><g fill="#000000" fill-opacity="1"><g transform="translate(366.701937, 526.150006)"><g><path d="M 11.8125 0 L 10.03125 0 L 8.125 -7 C 8 -7.4375 7.816406 -8.21875 7.578125 -9.34375 C 7.441406 -8.738281 7.328125 -8.234375 7.234375 -7.828125 C 7.140625 -7.421875 6.425781 -4.8125 5.09375 0 L 3.3125 0 L 0.078125 -11.015625 L 1.625 -11.015625 L 3.609375 -4.015625 C 3.835938 -3.140625 4.050781 -2.238281 4.25 -1.3125 C 4.375 -1.882812 4.519531 -2.507812 4.6875 -3.1875 C 4.851562 -3.863281 5.578125 -6.472656 6.859375 -11.015625 L 8.28125 -11.015625 L 10.203125 -4.15625 C 10.492188 -3.039062 10.722656 -2.09375 10.890625 -1.3125 L 10.953125 -1.59375 C 11.097656 -2.1875 11.210938 -2.671875 11.296875 -3.046875 C 11.390625 -3.429688 12.125 -6.085938 13.5 -11.015625 L 15.046875 -11.015625 Z M 11.8125 0 "/></g></g></g><g fill="#000000" fill-opacity="1"><g transform="translate(381.799817, 526.150006)"><g><path d="M 1.078125 -10.25 L 1.078125 -11.59375 L 2.484375 -11.59375 L 2.484375 -10.25 Z M 1.078125 0 L 1.078125 -8.453125 L 2.484375 -8.453125 L 2.484375 0 Z M 1.078125 0 "/></g></g></g><g fill="#000000" fill-opacity="1"><g transform="translate(385.353642, 526.150006)"><g><path d="M 1.078125 -10.25 L 1.078125 -11.59375 L 2.484375 -11.59375 L 2.484375 -10.25 Z M 1.078125 0 L 1.078125 -8.453125 L 2.484375 -8.453125 L 2.484375 0 Z M 1.078125 0 "/></g></g></g><g fill="#000000" fill-opacity="1"><g transform="translate(388.907467, 526.150006)"><g><path d="M 6 0 L 6 -5.359375 C 6 -6.179688 5.882812 -6.75 5.65625 -7.0625 C 5.4375 -7.375 5.035156 -7.53125 4.453125 -7.53125 C 3.859375 -7.53125 3.382812 -7.300781 3.03125 -6.84375 C 2.6875 -6.382812 2.515625 -5.738281 2.515625 -4.90625 L 2.515625 0 L 1.109375 0 L 1.109375 -6.65625 C 1.109375 -7.632812 1.09375 -8.234375 1.0625 -8.453125 L 2.390625 -8.453125 C 2.398438 -8.429688 2.40625 -8.363281 2.40625 -8.25 C 2.414062 -8.132812 2.421875 -8 2.421875 -7.84375 C 2.429688 -7.695312 2.441406 -7.421875 2.453125 -7.015625 L 2.484375 -7.015625 C 2.785156 -7.609375 3.128906 -8.019531 3.515625 -8.25 C 3.910156 -8.488281 4.390625 -8.609375 4.953125 -8.609375 C 5.585938 -8.609375 6.09375 -8.476562 6.46875 -8.21875 C 6.84375 -7.96875 7.101562 -7.566406 7.25 -7.015625 L 7.265625 -7.015625 C 7.554688 -7.578125 7.910156 -7.984375 8.328125 -8.234375 C 8.742188 -8.484375 9.242188 -8.609375 9.828125 -8.609375 C 10.679688 -8.609375 11.300781 -8.375 11.6875 -7.90625 C 12.082031 -7.445312 12.28125 -6.691406 12.28125 -5.640625 L 12.28125 0 L 10.890625 0 L 10.890625 -5.359375 C 10.890625 -6.179688 10.773438 -6.75 10.546875 -7.0625 C 10.328125 -7.375 9.925781 -7.53125 9.34375 -7.53125 C 8.726562 -7.53125 8.25 -7.300781 7.90625 -6.84375 C 7.5625 -6.382812 7.390625 -5.738281 7.390625 -4.90625 L 7.390625 0 Z M 6 0 "/></g></g></g><g fill="#000000" fill-opacity="1"><g transform="translate(402.232338, 526.150006)"><g><path d="M 6 0 L 6 -5.359375 C 6 -6.179688 5.882812 -6.75 5.65625 -7.0625 C 5.4375 -7.375 5.035156 -7.53125 4.453125 -7.53125 C 3.859375 -7.53125 3.382812 -7.300781 3.03125 -6.84375 C 2.6875 -6.382812 2.515625 -5.738281 2.515625 -4.90625 L 2.515625 0 L 1.109375 0 L 1.109375 -6.65625 C 1.109375 -7.632812 1.09375 -8.234375 1.0625 -8.453125 L 2.390625 -8.453125 C 2.398438 -8.429688 2.40625 -8.363281 2.40625 -8.25 C 2.414062 -8.132812 2.421875 -8 2.421875 -7.84375 C 2.429688 -7.695312 2.441406 -7.421875 2.453125 -7.015625 L 2.484375 -7.015625 C 2.785156 -7.609375 3.128906 -8.019531 3.515625 -8.25 C 3.910156 -8.488281 4.390625 -8.609375 4.953125 -8.609375 C 5.585938 -8.609375 6.09375 -8.476562 6.46875 -8.21875 C 6.84375 -7.96875 7.101562 -7.566406 7.25 -7.015625 L 7.265625 -7.015625 C 7.554688 -7.578125 7.910156 -7.984375 8.328125 -8.234375 C 8.742188 -8.484375 9.242188 -8.609375 9.828125 -8.609375 C 10.679688 -8.609375 11.300781 -8.375 11.6875 -7.90625 C 12.082031 -7.445312 12.28125 -6.691406 12.28125 -5.640625 L 12.28125 0 L 10.890625 0 L 10.890625 -5.359375 C 10.890625 -6.179688 10.773438 -6.75 10.546875 -7.0625 C 10.328125 -7.375 9.925781 -7.53125 9.34375 -7.53125 C 8.726562 -7.53125 8.25 -7.300781 7.90625 -6.84375 C 7.5625 -6.382812 7.390625 -5.738281 7.390625 -4.90625 L 7.390625 0 Z M 6 0 "/></g></g></g><g fill="#000000" fill-opacity="1"><g transform="translate(415.557209, 526.150006)"><g><path d="M 7.421875 -2.34375 C 7.421875 -1.539062 7.117188 -0.921875 6.515625 -0.484375 C 5.921875 -0.0546875 5.082031 0.15625 4 0.15625 C 2.945312 0.15625 2.132812 -0.015625 1.5625 -0.359375 C 0.988281 -0.710938 0.617188 -1.253906 0.453125 -1.984375 L 1.6875 -2.234375 C 1.8125 -1.773438 2.0625 -1.441406 2.4375 -1.234375 C 2.8125 -1.023438 3.332031 -0.921875 4 -0.921875 C 4.707031 -0.921875 5.226562 -1.03125 5.5625 -1.25 C 5.894531 -1.46875 6.0625 -1.796875 6.0625 -2.234375 C 6.0625 -2.566406 5.945312 -2.835938 5.71875 -3.046875 C 5.488281 -3.253906 5.117188 -3.425781 4.609375 -3.5625 L 3.59375 -3.828125 C 2.789062 -4.035156 2.21875 -4.238281 1.875 -4.4375 C 1.53125 -4.632812 1.257812 -4.875 1.0625 -5.15625 C 0.875 -5.445312 0.78125 -5.800781 0.78125 -6.21875 C 0.78125 -6.988281 1.054688 -7.578125 1.609375 -7.984375 C 2.160156 -8.390625 2.960938 -8.59375 4.015625 -8.59375 C 4.941406 -8.59375 5.679688 -8.425781 6.234375 -8.09375 C 6.785156 -7.769531 7.132812 -7.242188 7.28125 -6.515625 L 6.015625 -6.359375 C 5.929688 -6.734375 5.71875 -7.019531 5.375 -7.21875 C 5.039062 -7.425781 4.585938 -7.53125 4.015625 -7.53125 C 3.378906 -7.53125 2.910156 -7.429688 2.609375 -7.234375 C 2.304688 -7.046875 2.15625 -6.753906 2.15625 -6.359375 C 2.15625 -6.117188 2.21875 -5.921875 2.34375 -5.765625 C 2.46875 -5.609375 2.648438 -5.472656 2.890625 -5.359375 C 3.140625 -5.253906 3.65625 -5.109375 4.4375 -4.921875 C 5.1875 -4.734375 5.722656 -4.554688 6.046875 -4.390625 C 6.378906 -4.234375 6.640625 -4.054688 6.828125 -3.859375 C 7.015625 -3.671875 7.160156 -3.453125 7.265625 -3.203125 C 7.367188 -2.953125 7.421875 -2.664062 7.421875 -2.34375 Z M 7.421875 -2.34375 "/></g></g></g><g fill="#000000" fill-opacity="1"><g transform="translate(498.301162, 526.150006)"><g><path d="M 0.8125 -5.5625 C 0.8125 -7.34375 1.289062 -8.722656 2.25 -9.703125 C 3.207031 -10.679688 4.550781 -11.171875 6.28125 -11.171875 C 7.5 -11.171875 8.488281 -10.960938 9.25 -10.546875 C 10.007812 -10.140625 10.597656 -9.484375 11.015625 -8.578125 L 9.59375 -8.15625 C 9.28125 -8.78125 8.847656 -9.234375 8.296875 -9.515625 C 7.742188 -9.804688 7.0625 -9.953125 6.25 -9.953125 C 4.976562 -9.953125 4.003906 -9.566406 3.328125 -8.796875 C 2.660156 -8.035156 2.328125 -6.957031 2.328125 -5.5625 C 2.328125 -4.164062 2.679688 -3.066406 3.390625 -2.265625 C 4.109375 -1.460938 5.097656 -1.0625 6.359375 -1.0625 C 7.078125 -1.0625 7.742188 -1.171875 8.359375 -1.390625 C 8.984375 -1.609375 9.488281 -1.90625 9.875 -2.28125 L 9.875 -4.265625 L 6.59375 -4.265625 L 6.59375 -5.515625 L 11.25 -5.515625 L 11.25 -1.71875 C 10.664062 -1.125 9.953125 -0.660156 9.109375 -0.328125 C 8.265625 -0.00390625 7.347656 0.15625 6.359375 0.15625 C 5.203125 0.15625 4.207031 -0.0703125 3.375 -0.53125 C 2.539062 -0.988281 1.90625 -1.648438 1.46875 -2.515625 C 1.03125 -3.378906 0.8125 -4.394531 0.8125 -5.5625 Z M 0.8125 -5.5625 "/></g></g></g><g fill="#000000" fill-opacity="1"><g transform="translate(510.743441, 526.150006)"><g><path d="M 2.15625 -3.9375 C 2.15625 -2.96875 2.351562 -2.21875 2.75 -1.6875 C 3.15625 -1.164062 3.742188 -0.90625 4.515625 -0.90625 C 5.128906 -0.90625 5.617188 -1.023438 5.984375 -1.265625 C 6.347656 -1.515625 6.597656 -1.828125 6.734375 -2.203125 L 7.96875 -1.84375 C 7.457031 -0.507812 6.304688 0.15625 4.515625 0.15625 C 3.265625 0.15625 2.3125 -0.210938 1.65625 -0.953125 C 1.007812 -1.703125 0.6875 -2.8125 0.6875 -4.28125 C 0.6875 -5.675781 1.007812 -6.742188 1.65625 -7.484375 C 2.3125 -8.234375 3.25 -8.609375 4.46875 -8.609375 C 6.945312 -8.609375 8.1875 -7.113281 8.1875 -4.125 L 8.1875 -3.9375 Z M 6.734375 -5.015625 C 6.660156 -5.898438 6.4375 -6.546875 6.0625 -6.953125 C 5.6875 -7.367188 5.144531 -7.578125 4.4375 -7.578125 C 3.757812 -7.578125 3.21875 -7.347656 2.8125 -6.890625 C 2.414062 -6.429688 2.203125 -5.804688 2.171875 -5.015625 Z M 6.734375 -5.015625 "/></g></g></g><g fill="#000000" fill-opacity="1"><g transform="translate(519.639712, 526.150006)"><g><path d="M 2.15625 -4.265625 C 2.15625 -3.140625 2.332031 -2.304688 2.6875 -1.765625 C 3.039062 -1.222656 3.570312 -0.953125 4.28125 -0.953125 C 4.78125 -0.953125 5.195312 -1.085938 5.53125 -1.359375 C 5.875 -1.628906 6.082031 -2.046875 6.15625 -2.609375 L 7.578125 -2.515625 C 7.472656 -1.703125 7.128906 -1.050781 6.546875 -0.5625 C 5.960938 -0.0820312 5.222656 0.15625 4.328125 0.15625 C 3.140625 0.15625 2.234375 -0.21875 1.609375 -0.96875 C 0.992188 -1.71875 0.6875 -2.804688 0.6875 -4.234375 C 0.6875 -5.660156 1 -6.742188 1.625 -7.484375 C 2.25 -8.234375 3.144531 -8.609375 4.3125 -8.609375 C 5.175781 -8.609375 5.890625 -8.382812 6.453125 -7.9375 C 7.023438 -7.488281 7.382812 -6.875 7.53125 -6.09375 L 6.09375 -5.984375 C 6.019531 -6.453125 5.832031 -6.820312 5.53125 -7.09375 C 5.238281 -7.375 4.816406 -7.515625 4.265625 -7.515625 C 3.523438 -7.515625 2.988281 -7.265625 2.65625 -6.765625 C 2.320312 -6.273438 2.15625 -5.441406 2.15625 -4.265625 Z M 2.15625 -4.265625 "/></g></g></g><g fill="#000000" fill-opacity="1"><g transform="translate(527.637758, 526.150006)"><g><path d="M 6.375 0 L 3.515625 -3.859375 L 2.484375 -3.015625 L 2.484375 0 L 1.078125 0 L 1.078125 -11.59375 L 2.484375 -11.59375 L 2.484375 -4.359375 L 6.203125 -8.453125 L 7.84375 -8.453125 L 4.421875 -4.828125 L 8.03125 0 Z M 6.375 0 "/></g></g></g><g fill="#000000" fill-opacity="1"><g transform="translate(535.635805, 526.150006)"><g><path d="M 8.234375 -4.234375 C 8.234375 -2.753906 7.90625 -1.648438 7.25 -0.921875 C 6.601562 -0.203125 5.660156 0.15625 4.421875 0.15625 C 3.179688 0.15625 2.242188 -0.21875 1.609375 -0.96875 C 0.984375 -1.726562 0.671875 -2.816406 0.671875 -4.234375 C 0.671875 -7.148438 1.9375 -8.609375 4.46875 -8.609375 C 5.757812 -8.609375 6.707031 -8.253906 7.3125 -7.546875 C 7.925781 -6.835938 8.234375 -5.734375 8.234375 -4.234375 Z M 6.75 -4.234375 C 6.75 -5.398438 6.578125 -6.25 6.234375 -6.78125 C 5.890625 -7.3125 5.304688 -7.578125 4.484375 -7.578125 C 3.660156 -7.578125 3.066406 -7.304688 2.703125 -6.765625 C 2.335938 -6.222656 2.15625 -5.378906 2.15625 -4.234375 C 2.15625 -3.117188 2.332031 -2.28125 2.6875 -1.71875 C 3.050781 -1.164062 3.625 -0.890625 4.40625 -0.890625 C 5.25 -0.890625 5.847656 -1.160156 6.203125 -1.703125 C 6.566406 -2.242188 6.75 -3.085938 6.75 -4.234375 Z M 6.75 -4.234375 "/></g></g></g><g fill="#000000" fill-opacity="1"><g transform="translate(544.532075, 526.150006)"><g><path d="M 1.3125 0 L 1.3125 -11.015625 L 2.8125 -11.015625 L 2.8125 -1.21875 L 8.375 -1.21875 L 8.375 0 Z M 1.3125 0 "/></g></g></g><g fill="#000000" fill-opacity="1"><g transform="translate(553.428345, 526.150006)"><g><path d="M 8.234375 -4.234375 C 8.234375 -2.753906 7.90625 -1.648438 7.25 -0.921875 C 6.601562 -0.203125 5.660156 0.15625 4.421875 0.15625 C 3.179688 0.15625 2.242188 -0.21875 1.609375 -0.96875 C 0.984375 -1.726562 0.671875 -2.816406 0.671875 -4.234375 C 0.671875 -7.148438 1.9375 -8.609375 4.46875 -8.609375 C 5.757812 -8.609375 6.707031 -8.253906 7.3125 -7.546875 C 7.925781 -6.835938 8.234375 -5.734375 8.234375 -4.234375 Z M 6.75 -4.234375 C 6.75 -5.398438 6.578125 -6.25 6.234375 -6.78125 C 5.890625 -7.3125 5.304688 -7.578125 4.484375 -7.578125 C 3.660156 -7.578125 3.066406 -7.304688 2.703125 -6.765625 C 2.335938 -6.222656 2.15625 -5.378906 2.15625 -4.234375 C 2.15625 -3.117188 2.332031 -2.28125 2.6875 -1.71875 C 3.050781 -1.164062 3.625 -0.890625 4.40625 -0.890625 C 5.25 -0.890625 5.847656 -1.160156 6.203125 -1.703125 C 6.566406 -2.242188 6.75 -3.085938 6.75 -4.234375 Z M 6.75 -4.234375 "/></g></g></g><g fill="#000000" fill-opacity="1"><g transform="translate(562.324616, 526.150006)"><g><path d="M 3.234375 0.15625 C 2.390625 0.15625 1.753906 -0.0664062 1.328125 -0.515625 C 0.898438 -0.960938 0.6875 -1.578125 0.6875 -2.359375 C 0.6875 -3.234375 0.972656 -3.90625 1.546875 -4.375 C 2.117188 -4.84375 3.046875 -5.09375 4.328125 -5.125 L 6.234375 -5.15625 L 6.234375 -5.625 C 6.234375 -6.3125 6.085938 -6.800781 5.796875 -7.09375 C 5.503906 -7.394531 5.046875 -7.546875 4.421875 -7.546875 C 3.785156 -7.546875 3.320312 -7.4375 3.03125 -7.21875 C 2.75 -7.007812 2.582031 -6.671875 2.53125 -6.203125 L 1.0625 -6.328125 C 1.300781 -7.847656 2.429688 -8.609375 4.453125 -8.609375 C 5.515625 -8.609375 6.3125 -8.363281 6.84375 -7.875 C 7.382812 -7.394531 7.65625 -6.691406 7.65625 -5.765625 L 7.65625 -2.125 C 7.65625 -1.707031 7.707031 -1.394531 7.8125 -1.1875 C 7.925781 -0.976562 8.132812 -0.875 8.4375 -0.875 C 8.570312 -0.875 8.726562 -0.890625 8.90625 -0.921875 L 8.90625 -0.046875 C 8.550781 0.0351562 8.1875 0.078125 7.8125 0.078125 C 7.289062 0.078125 6.910156 -0.0546875 6.671875 -0.328125 C 6.441406 -0.609375 6.3125 -1.039062 6.28125 -1.625 L 6.234375 -1.625 C 5.867188 -0.976562 5.445312 -0.519531 4.96875 -0.25 C 4.5 0.0195312 3.921875 0.15625 3.234375 0.15625 Z M 3.5625 -0.90625 C 4.070312 -0.90625 4.523438 -1.019531 4.921875 -1.25 C 5.328125 -1.488281 5.644531 -1.8125 5.875 -2.21875 C 6.113281 -2.625 6.234375 -3.046875 6.234375 -3.484375 L 6.234375 -4.171875 L 4.6875 -4.140625 C 4.03125 -4.128906 3.53125 -4.0625 3.1875 -3.9375 C 2.84375 -3.8125 2.578125 -3.617188 2.390625 -3.359375 C 2.210938 -3.097656 2.125 -2.757812 2.125 -2.34375 C 2.125 -1.882812 2.25 -1.53125 2.5 -1.28125 C 2.75 -1.03125 3.101562 -0.90625 3.5625 -0.90625 Z M 3.5625 -0.90625 "/></g></g></g><g fill="#000000" fill-opacity="1"><g transform="translate(571.220886, 526.150006)"><g><path d="M 6.421875 -1.359375 C 6.160156 -0.816406 5.8125 -0.425781 5.375 -0.1875 C 4.945312 0.0390625 4.414062 0.15625 3.78125 0.15625 C 2.71875 0.15625 1.929688 -0.203125 1.421875 -0.921875 C 0.921875 -1.640625 0.671875 -2.726562 0.671875 -4.1875 C 0.671875 -7.132812 1.707031 -8.609375 3.78125 -8.609375 C 4.425781 -8.609375 4.960938 -8.488281 5.390625 -8.25 C 5.816406 -8.019531 6.160156 -7.648438 6.421875 -7.140625 L 6.4375 -7.140625 L 6.421875 -8.09375 L 6.421875 -11.59375 L 7.828125 -11.59375 L 7.828125 -1.75 C 7.828125 -0.863281 7.84375 -0.28125 7.875 0 L 6.53125 0 C 6.507812 -0.0820312 6.488281 -0.273438 6.46875 -0.578125 C 6.457031 -0.878906 6.453125 -1.140625 6.453125 -1.359375 Z M 2.15625 -4.234375 C 2.15625 -3.054688 2.3125 -2.210938 2.625 -1.703125 C 2.9375 -1.191406 3.441406 -0.9375 4.140625 -0.9375 C 4.941406 -0.9375 5.519531 -1.210938 5.875 -1.765625 C 6.238281 -2.316406 6.421875 -3.171875 6.421875 -4.328125 C 6.421875 -5.453125 6.238281 -6.273438 5.875 -6.796875 C 5.519531 -7.316406 4.945312 -7.578125 4.15625 -7.578125 C 3.445312 -7.578125 2.9375 -7.3125 2.625 -6.78125 C 2.3125 -6.257812 2.15625 -5.410156 2.15625 -4.234375 Z M 2.15625 -4.234375 "/></g></g></g><g fill="#000000" fill-opacity="1"><g transform="translate(580.117156, 526.150006)"><g><path d="M 2.15625 -3.9375 C 2.15625 -2.96875 2.351562 -2.21875 2.75 -1.6875 C 3.15625 -1.164062 3.742188 -0.90625 4.515625 -0.90625 C 5.128906 -0.90625 5.617188 -1.023438 5.984375 -1.265625 C 6.347656 -1.515625 6.597656 -1.828125 6.734375 -2.203125 L 7.96875 -1.84375 C 7.457031 -0.507812 6.304688 0.15625 4.515625 0.15625 C 3.265625 0.15625 2.3125 -0.210938 1.65625 -0.953125 C 1.007812 -1.703125 0.6875 -2.8125 0.6875 -4.28125 C 0.6875 -5.675781 1.007812 -6.742188 1.65625 -7.484375 C 2.3125 -8.234375 3.25 -8.609375 4.46875 -8.609375 C 6.945312 -8.609375 8.1875 -7.113281 8.1875 -4.125 L 8.1875 -3.9375 Z M 6.734375 -5.015625 C 6.660156 -5.898438 6.4375 -6.546875 6.0625 -6.953125 C 5.6875 -7.367188 5.144531 -7.578125 4.4375 -7.578125 C 3.757812 -7.578125 3.21875 -7.347656 2.8125 -6.890625 C 2.414062 -6.429688 2.203125 -5.804688 2.171875 -5.015625 Z M 6.734375 -5.015625 "/></g></g></g><g fill="#000000" fill-opacity="1"><g transform="translate(589.013427, 526.150006)"><g><path d="M 1.109375 0 L 1.109375 -6.484375 C 1.109375 -7.078125 1.09375 -7.734375 1.0625 -8.453125 L 2.390625 -8.453125 C 2.429688 -7.492188 2.453125 -6.921875 2.453125 -6.734375 L 2.484375 -6.734375 C 2.710938 -7.453125 2.972656 -7.941406 3.265625 -8.203125 C 3.554688 -8.472656 3.96875 -8.609375 4.5 -8.609375 C 4.6875 -8.609375 4.875 -8.582031 5.0625 -8.53125 L 5.0625 -7.25 C 4.875 -7.300781 4.625 -7.328125 4.3125 -7.328125 C 3.726562 -7.328125 3.28125 -7.070312 2.96875 -6.5625 C 2.664062 -6.0625 2.515625 -5.34375 2.515625 -4.40625 L 2.515625 0 Z M 1.109375 0 "/></g></g></g><g clip-path="url(#69cabff9ae)"><g mask="url(#87e5500968)"><g transform="matrix(1, 0, 0, 1, 179, 118)"><g clip-path="url(#0df3208031)"><g clip-path="url(#879f5d0728)"><path fill="#222222" d="M 0.125 0.667969 L 432.125 0.667969 L 432.125 386.167969 L 0.125 386.167969 Z M 0.125 0.667969 " fill-opacity="1" fill-rule="nonzero"/></g></g></g></g></g><g clip-path="url(#0be26dc605)"><g mask="url(#af8a36aa87)"><g transform="matrix(1, 0, 0, 1, 179, 214)"><g clip-path="url(#28f185b3ea)"><g clip-path="url(#4a9fb42c75)"><path fill="#222222" d="M 0.125 -95.332031 L 432.125 -95.332031 L 432.125 290.167969 L 0.125 290.167969 Z M 0.125 -95.332031 " fill-opacity="1" fill-rule="nonzero"/></g></g></g></g></g><g clip-path="url(#ab6fa9db82)"><g mask="url(#8fe356e31b)"><g transform="matrix(1, 0, 0, 1, 179, 311)"><g clip-path="url(#01d2e97949)"><g clip-path="url(#891e8c5b51)"><path fill="#222222" d="M 0.125 -192.332031 L 432.125 -192.332031 L 432.125 193.167969 L 0.125 193.167969 Z M 0.125 -192.332031 " fill-opacity="1" fill-rule="nonzero"/></g></g></g></g></g><g clip-path="url(#4bb7ad9eb7)"><g mask="url(#b718f1e633)"><g transform="matrix(1, 0, 0, 1, 179, 407)"><g clip-path="url(#aab0cef0ca)"><g clip-path="url(#be7eb68241)"><path fill="#222222" d="M 0.125 -288.332031 L 432.125 -288.332031 L 432.125 97.167969 L 0.125 97.167969 Z M 0.125 -288.332031 " fill-opacity="1" fill-rule="nonzero"/></g></g></g></g></g><g clip-path="url(#9a1fa38468)"><g mask="url(#c3ada0348a)"><g transform="matrix(1, 0, 0, 1, 179, 503)"><g clip-path="url(#43ca06c41d)"><g clip-path="url(#a3ccc247cd)"><path fill="#222222" d="M 0.125 -384.332031 L 432.125 -384.332031 L 432.125 1.167969 L 0.125 1.167969 Z M 0.125 -384.332031 " fill-opacity="1" fill-rule="nonzero"/></g></g></g></g></g><g fill="#000000" fill-opacity="1"><g transform="translate(140.000369, 123.917739)"><g><path d="M 6.890625 -2.5 L 6.890625 0 L 5.5625 0 L 5.5625 -2.5 L 0.375 -2.5 L 0.375 -3.59375 L 5.40625 -11.015625 L 6.890625 -11.015625 L 6.890625 -3.609375 L 8.4375 -3.609375 L 8.4375 -2.5 Z M 5.5625 -9.421875 C 5.550781 -9.390625 5.476562 -9.25 5.34375 -9 C 5.207031 -8.757812 5.101562 -8.59375 5.03125 -8.5 L 2.21875 -4.34375 L 1.796875 -3.765625 L 1.671875 -3.609375 L 5.5625 -3.609375 Z M 5.5625 -9.421875 "/></g></g></g><g fill="#000000" fill-opacity="1"><g transform="translate(148.89664, 123.917739)"><g><path d="M 8.28125 -5.515625 C 8.28125 -3.671875 7.953125 -2.265625 7.296875 -1.296875 C 6.648438 -0.328125 5.695312 0.15625 4.4375 0.15625 C 3.164062 0.15625 2.210938 -0.320312 1.578125 -1.28125 C 0.941406 -2.25 0.625 -3.660156 0.625 -5.515625 C 0.625 -7.398438 0.929688 -8.8125 1.546875 -9.75 C 2.171875 -10.695312 3.148438 -11.171875 4.484375 -11.171875 C 5.773438 -11.171875 6.726562 -10.691406 7.34375 -9.734375 C 7.96875 -8.785156 8.28125 -7.378906 8.28125 -5.515625 Z M 6.84375 -5.515625 C 6.84375 -7.097656 6.660156 -8.242188 6.296875 -8.953125 C 5.929688 -9.671875 5.328125 -10.03125 4.484375 -10.03125 C 3.617188 -10.03125 2.992188 -9.675781 2.609375 -8.96875 C 2.234375 -8.269531 2.046875 -7.117188 2.046875 -5.515625 C 2.046875 -3.953125 2.238281 -2.804688 2.625 -2.078125 C 3.007812 -1.359375 3.617188 -1 4.453125 -1 C 5.273438 -1 5.878906 -1.367188 6.265625 -2.109375 C 6.648438 -2.847656 6.84375 -3.984375 6.84375 -5.515625 Z M 6.84375 -5.515625 "/></g></g></g><g fill="#000000" fill-opacity="1"><g transform="translate(157.79291, 123.917739)"><g><path d="M 8.28125 -5.515625 C 8.28125 -3.671875 7.953125 -2.265625 7.296875 -1.296875 C 6.648438 -0.328125 5.695312 0.15625 4.4375 0.15625 C 3.164062 0.15625 2.210938 -0.320312 1.578125 -1.28125 C 0.941406 -2.25 0.625 -3.660156 0.625 -5.515625 C 0.625 -7.398438 0.929688 -8.8125 1.546875 -9.75 C 2.171875 -10.695312 3.148438 -11.171875 4.484375 -11.171875 C 5.773438 -11.171875 6.726562 -10.691406 7.34375 -9.734375 C 7.96875 -8.785156 8.28125 -7.378906 8.28125 -5.515625 Z M 6.84375 -5.515625 C 6.84375 -7.097656 6.660156 -8.242188 6.296875 -8.953125 C 5.929688 -9.671875 5.328125 -10.03125 4.484375 -10.03125 C 3.617188 -10.03125 2.992188 -9.675781 2.609375 -8.96875 C 2.234375 -8.269531 2.046875 -7.117188 2.046875 -5.515625 C 2.046875 -3.953125 2.238281 -2.804688 2.625 -2.078125 C 3.007812 -1.359375 3.617188 -1 4.453125 -1 C 5.273438 -1 5.878906 -1.367188 6.265625 -2.109375 C 6.648438 -2.847656 6.84375 -3.984375 6.84375 -5.515625 Z M 6.84375 -5.515625 "/></g></g></g><g fill="#000000" fill-opacity="1"><g transform="translate(166.683962, 123.917739)"><g/></g></g><g fill="#000000" fill-opacity="1"><g transform="translate(140.000369, 220.15706)"><g><path d="M 8.203125 -3.046875 C 8.203125 -2.023438 7.878906 -1.234375 7.234375 -0.671875 C 6.585938 -0.117188 5.664062 0.15625 4.46875 0.15625 C 3.351562 0.15625 2.460938 -0.09375 1.796875 -0.59375 C 1.128906 -1.101562 0.734375 -1.847656 0.609375 -2.828125 L 2.0625 -2.96875 C 2.25 -1.664062 3.050781 -1.015625 4.46875 -1.015625 C 5.175781 -1.015625 5.726562 -1.1875 6.125 -1.53125 C 6.53125 -1.882812 6.734375 -2.40625 6.734375 -3.09375 C 6.734375 -3.6875 6.503906 -4.148438 6.046875 -4.484375 C 5.585938 -4.828125 4.921875 -5 4.046875 -5 L 3.25 -5 L 3.25 -6.21875 L 4.015625 -6.21875 C 4.785156 -6.21875 5.382812 -6.382812 5.8125 -6.71875 C 6.238281 -7.050781 6.453125 -7.515625 6.453125 -8.109375 C 6.453125 -8.703125 6.273438 -9.164062 5.921875 -9.5 C 5.578125 -9.84375 5.066406 -10.015625 4.390625 -10.015625 C 3.765625 -10.015625 3.257812 -9.851562 2.875 -9.53125 C 2.5 -9.21875 2.28125 -8.773438 2.21875 -8.203125 L 0.796875 -8.3125 C 0.898438 -9.207031 1.273438 -9.90625 1.921875 -10.40625 C 2.566406 -10.914062 3.394531 -11.171875 4.40625 -11.171875 C 5.507812 -11.171875 6.363281 -10.914062 6.96875 -10.40625 C 7.582031 -9.894531 7.890625 -9.179688 7.890625 -8.265625 C 7.890625 -7.554688 7.691406 -6.984375 7.296875 -6.546875 C 6.910156 -6.109375 6.34375 -5.8125 5.59375 -5.65625 L 5.59375 -5.625 C 6.414062 -5.53125 7.054688 -5.25 7.515625 -4.78125 C 7.972656 -4.320312 8.203125 -3.742188 8.203125 -3.046875 Z M 8.203125 -3.046875 "/></g></g></g><g fill="#000000" fill-opacity="1"><g transform="translate(148.89664, 220.15706)"><g><path d="M 8.28125 -5.515625 C 8.28125 -3.671875 7.953125 -2.265625 7.296875 -1.296875 C 6.648438 -0.328125 5.695312 0.15625 4.4375 0.15625 C 3.164062 0.15625 2.210938 -0.320312 1.578125 -1.28125 C 0.941406 -2.25 0.625 -3.660156 0.625 -5.515625 C 0.625 -7.398438 0.929688 -8.8125 1.546875 -9.75 C 2.171875 -10.695312 3.148438 -11.171875 4.484375 -11.171875 C 5.773438 -11.171875 6.726562 -10.691406 7.34375 -9.734375 C 7.96875 -8.785156 8.28125 -7.378906 8.28125 -5.515625 Z M 6.84375 -5.515625 C 6.84375 -7.097656 6.660156 -8.242188 6.296875 -8.953125 C 5.929688 -9.671875 5.328125 -10.03125 4.484375 -10.03125 C 3.617188 -10.03125 2.992188 -9.675781 2.609375 -8.96875 C 2.234375 -8.269531 2.046875 -7.117188 2.046875 -5.515625 C 2.046875 -3.953125 2.238281 -2.804688 2.625 -2.078125 C 3.007812 -1.359375 3.617188 -1 4.453125 -1 C 5.273438 -1 5.878906 -1.367188 6.265625 -2.109375 C 6.648438 -2.847656 6.84375 -3.984375 6.84375 -5.515625 Z M 6.84375 -5.515625 "/></g></g></g><g fill="#000000" fill-opacity="1"><g transform="translate(157.79291, 220.15706)"><g><path d="M 8.28125 -5.515625 C 8.28125 -3.671875 7.953125 -2.265625 7.296875 -1.296875 C 6.648438 -0.328125 5.695312 0.15625 4.4375 0.15625 C 3.164062 0.15625 2.210938 -0.320312 1.578125 -1.28125 C 0.941406 -2.25 0.625 -3.660156 0.625 -5.515625 C 0.625 -7.398438 0.929688 -8.8125 1.546875 -9.75 C 2.171875 -10.695312 3.148438 -11.171875 4.484375 -11.171875 C 5.773438 -11.171875 6.726562 -10.691406 7.34375 -9.734375 C 7.96875 -8.785156 8.28125 -7.378906 8.28125 -5.515625 Z M 6.84375 -5.515625 C 6.84375 -7.097656 6.660156 -8.242188 6.296875 -8.953125 C 5.929688 -9.671875 5.328125 -10.03125 4.484375 -10.03125 C 3.617188 -10.03125 2.992188 -9.675781 2.609375 -8.96875 C 2.234375 -8.269531 2.046875 -7.117188 2.046875 -5.515625 C 2.046875 -3.953125 2.238281 -2.804688 2.625 -2.078125 C 3.007812 -1.359375 3.617188 -1 4.453125 -1 C 5.273438 -1 5.878906 -1.367188 6.265625 -2.109375 C 6.648438 -2.847656 6.84375 -3.984375 6.84375 -5.515625 Z M 6.84375 -5.515625 "/></g></g></g><g fill="#000000" fill-opacity="1"><g transform="translate(166.683962, 220.15706)"><g/></g></g><g fill="#000000" fill-opacity="1"><g transform="translate(140.000369, 316.396356)"><g><path d="M 0.8125 0 L 0.8125 -1 C 1.070312 -1.601562 1.394531 -2.140625 1.78125 -2.609375 C 2.164062 -3.078125 2.566406 -3.5 2.984375 -3.875 C 3.410156 -4.25 3.828125 -4.597656 4.234375 -4.921875 C 4.648438 -5.242188 5.023438 -5.566406 5.359375 -5.890625 C 5.691406 -6.210938 5.960938 -6.550781 6.171875 -6.90625 C 6.378906 -7.257812 6.484375 -7.660156 6.484375 -8.109375 C 6.484375 -8.710938 6.304688 -9.179688 5.953125 -9.515625 C 5.597656 -9.847656 5.101562 -10.015625 4.46875 -10.015625 C 3.875 -10.015625 3.378906 -9.851562 2.984375 -9.53125 C 2.597656 -9.207031 2.375 -8.75 2.3125 -8.15625 L 0.875 -8.296875 C 0.976562 -9.171875 1.347656 -9.867188 1.984375 -10.390625 C 2.628906 -10.910156 3.457031 -11.171875 4.46875 -11.171875 C 5.582031 -11.171875 6.4375 -10.910156 7.03125 -10.390625 C 7.625 -9.867188 7.921875 -9.125 7.921875 -8.15625 C 7.921875 -7.726562 7.820312 -7.300781 7.625 -6.875 C 7.4375 -6.457031 7.148438 -6.035156 6.765625 -5.609375 C 6.378906 -5.191406 5.640625 -4.539062 4.546875 -3.65625 C 3.953125 -3.164062 3.476562 -2.722656 3.125 -2.328125 C 2.769531 -1.941406 2.515625 -1.566406 2.359375 -1.203125 L 8.09375 -1.203125 L 8.09375 0 Z M 0.8125 0 "/></g></g></g><g fill="#000000" fill-opacity="1"><g transform="translate(148.89664, 316.396356)"><g><path d="M 8.28125 -5.515625 C 8.28125 -3.671875 7.953125 -2.265625 7.296875 -1.296875 C 6.648438 -0.328125 5.695312 0.15625 4.4375 0.15625 C 3.164062 0.15625 2.210938 -0.320312 1.578125 -1.28125 C 0.941406 -2.25 0.625 -3.660156 0.625 -5.515625 C 0.625 -7.398438 0.929688 -8.8125 1.546875 -9.75 C 2.171875 -10.695312 3.148438 -11.171875 4.484375 -11.171875 C 5.773438 -11.171875 6.726562 -10.691406 7.34375 -9.734375 C 7.96875 -8.785156 8.28125 -7.378906 8.28125 -5.515625 Z M 6.84375 -5.515625 C 6.84375 -7.097656 6.660156 -8.242188 6.296875 -8.953125 C 5.929688 -9.671875 5.328125 -10.03125 4.484375 -10.03125 C 3.617188 -10.03125 2.992188 -9.675781 2.609375 -8.96875 C 2.234375 -8.269531 2.046875 -7.117188 2.046875 -5.515625 C 2.046875 -3.953125 2.238281 -2.804688 2.625 -2.078125 C 3.007812 -1.359375 3.617188 -1 4.453125 -1 C 5.273438 -1 5.878906 -1.367188 6.265625 -2.109375 C 6.648438 -2.847656 6.84375 -3.984375 6.84375 -5.515625 Z M 6.84375 -5.515625 "/></g></g></g><g fill="#000000" fill-opacity="1"><g transform="translate(157.79291, 316.396356)"><g><path d="M 8.28125 -5.515625 C 8.28125 -3.671875 7.953125 -2.265625 7.296875 -1.296875 C 6.648438 -0.328125 5.695312 0.15625 4.4375 0.15625 C 3.164062 0.15625 2.210938 -0.320312 1.578125 -1.28125 C 0.941406 -2.25 0.625 -3.660156 0.625 -5.515625 C 0.625 -7.398438 0.929688 -8.8125 1.546875 -9.75 C 2.171875 -10.695312 3.148438 -11.171875 4.484375 -11.171875 C 5.773438 -11.171875 6.726562 -10.691406 7.34375 -9.734375 C 7.96875 -8.785156 8.28125 -7.378906 8.28125 -5.515625 Z M 6.84375 -5.515625 C 6.84375 -7.097656 6.660156 -8.242188 6.296875 -8.953125 C 5.929688 -9.671875 5.328125 -10.03125 4.484375 -10.03125 C 3.617188 -10.03125 2.992188 -9.675781 2.609375 -8.96875 C 2.234375 -8.269531 2.046875 -7.117188 2.046875 -5.515625 C 2.046875 -3.953125 2.238281 -2.804688 2.625 -2.078125 C 3.007812 -1.359375 3.617188 -1 4.453125 -1 C 5.273438 -1 5.878906 -1.367188 6.265625 -2.109375 C 6.648438 -2.847656 6.84375 -3.984375 6.84375 -5.515625 Z M 6.84375 -5.515625 "/></g></g></g><g fill="#000000" fill-opacity="1"><g transform="translate(166.683962, 316.396356)"><g/></g></g><g fill="#000000" fill-opacity="1"><g transform="translate(140.000369, 412.635735)"><g><path d="M 1.21875 0 L 1.21875 -1.203125 L 4.03125 -1.203125 L 4.03125 -9.671875 L 1.546875 -7.890625 L 1.546875 -9.21875 L 4.140625 -11.015625 L 5.4375 -11.015625 L 5.4375 -1.203125 L 8.125 -1.203125 L 8.125 0 Z M 1.21875 0 "/></g></g></g><g fill="#000000" fill-opacity="1"><g transform="translate(148.89664, 412.635735)"><g><path d="M 8.28125 -5.515625 C 8.28125 -3.671875 7.953125 -2.265625 7.296875 -1.296875 C 6.648438 -0.328125 5.695312 0.15625 4.4375 0.15625 C 3.164062 0.15625 2.210938 -0.320312 1.578125 -1.28125 C 0.941406 -2.25 0.625 -3.660156 0.625 -5.515625 C 0.625 -7.398438 0.929688 -8.8125 1.546875 -9.75 C 2.171875 -10.695312 3.148438 -11.171875 4.484375 -11.171875 C 5.773438 -11.171875 6.726562 -10.691406 7.34375 -9.734375 C 7.96875 -8.785156 8.28125 -7.378906 8.28125 -5.515625 Z M 6.84375 -5.515625 C 6.84375 -7.097656 6.660156 -8.242188 6.296875 -8.953125 C 5.929688 -9.671875 5.328125 -10.03125 4.484375 -10.03125 C 3.617188 -10.03125 2.992188 -9.675781 2.609375 -8.96875 C 2.234375 -8.269531 2.046875 -7.117188 2.046875 -5.515625 C 2.046875 -3.953125 2.238281 -2.804688 2.625 -2.078125 C 3.007812 -1.359375 3.617188 -1 4.453125 -1 C 5.273438 -1 5.878906 -1.367188 6.265625 -2.109375 C 6.648438 -2.847656 6.84375 -3.984375 6.84375 -5.515625 Z M 6.84375 -5.515625 "/></g></g></g><g fill="#000000" fill-opacity="1"><g transform="translate(157.79291, 412.635735)"><g><path d="M 8.28125 -5.515625 C 8.28125 -3.671875 7.953125 -2.265625 7.296875 -1.296875 C 6.648438 -0.328125 5.695312 0.15625 4.4375 0.15625 C 3.164062 0.15625 2.210938 -0.320312 1.578125 -1.28125 C 0.941406 -2.25 0.625 -3.660156 0.625 -5.515625 C 0.625 -7.398438 0.929688 -8.8125 1.546875 -9.75 C 2.171875 -10.695312 3.148438 -11.171875 4.484375 -11.171875 C 5.773438 -11.171875 6.726562 -10.691406 7.34375 -9.734375 C 7.96875 -8.785156 8.28125 -7.378906 8.28125 -5.515625 Z M 6.84375 -5.515625 C 6.84375 -7.097656 6.660156 -8.242188 6.296875 -8.953125 C 5.929688 -9.671875 5.328125 -10.03125 4.484375 -10.03125 C 3.617188 -10.03125 2.992188 -9.675781 2.609375 -8.96875 C 2.234375 -8.269531 2.046875 -7.117188 2.046875 -5.515625 C 2.046875 -3.953125 2.238281 -2.804688 2.625 -2.078125 C 3.007812 -1.359375 3.617188 -1 4.453125 -1 C 5.273438 -1 5.878906 -1.367188 6.265625 -2.109375 C 6.648438 -2.847656 6.84375 -3.984375 6.84375 -5.515625 Z M 6.84375 -5.515625 "/></g></g></g><g fill="#000000" fill-opacity="1"><g transform="translate(166.683962, 412.635735)"><g/></g></g><g fill="#000000" fill-opacity="1"><g transform="translate(157.788655, 508.874999)"><g><path d="M 8.28125 -5.515625 C 8.28125 -3.671875 7.953125 -2.265625 7.296875 -1.296875 C 6.648438 -0.328125 5.695312 0.15625 4.4375 0.15625 C 3.164062 0.15625 2.210938 -0.320312 1.578125 -1.28125 C 0.941406 -2.25 0.625 -3.660156 0.625 -5.515625 C 0.625 -7.398438 0.929688 -8.8125 1.546875 -9.75 C 2.171875 -10.695312 3.148438 -11.171875 4.484375 -11.171875 C 5.773438 -11.171875 6.726562 -10.691406 7.34375 -9.734375 C 7.96875 -8.785156 8.28125 -7.378906 8.28125 -5.515625 Z M 6.84375 -5.515625 C 6.84375 -7.097656 6.660156 -8.242188 6.296875 -8.953125 C 5.929688 -9.671875 5.328125 -10.03125 4.484375 -10.03125 C 3.617188 -10.03125 2.992188 -9.675781 2.609375 -8.96875 C 2.234375 -8.269531 2.046875 -7.117188 2.046875 -5.515625 C 2.046875 -3.953125 2.238281 -2.804688 2.625 -2.078125 C 3.007812 -1.359375 3.617188 -1 4.453125 -1 C 5.273438 -1 5.878906 -1.367188 6.265625 -2.109375 C 6.648438 -2.847656 6.84375 -3.984375 6.84375 -5.515625 Z M 6.84375 -5.515625 "/></g></g></g><g fill="#000000" fill-opacity="1"><g transform="translate(166.683186, 508.874999)"><g/></g></g><g clip-path="url(#f8d2f3f9b6)"><g clip-path="url(#6d06941122)"><path fill="#79bf7f" d="M 179.125 139.839844 L 611.125 139.839844 L 611.125 504.339844 L 179.125 504.339844 Z M 179.125 139.839844 " fill-opacity="1" fill-rule="nonzero"/></g></g><g clip-path="url(#d4803fd18d)"><g clip-path="url(#10c681ee6c)"><path fill="#79bf7f" d="M 179.125 139.839844 L 611.125 139.839844 L 611.125 504.339844 L 179.125 504.339844 Z M 179.125 139.839844 " fill-opacity="1" fill-rule="nonzero"/></g></g><g clip-path="url(#33a2da349a)"><g clip-path="url(#c459c4045a)"><path fill="#79bf7f" d="M 179.125 139.839844 L 611.125 139.839844 L 611.125 504.339844 L 179.125 504.339844 Z M 179.125 139.839844 " fill-opacity="1" fill-rule="nonzero"/></g></g><g fill="#000000" fill-opacity="1"><g transform="translate(274.878493, 75.300017)"><g><path d="M 3.78125 0 L 1.65625 0 L 1.65625 -12.59375 L 3.78125 -12.59375 Z M 3.78125 0 "/></g></g></g><g fill="#000000" fill-opacity="1"><g transform="translate(280.314482, 75.300017)"><g><path d="M 7.125 -9.640625 C 8.238281 -9.640625 9.109375 -9.3125 9.734375 -8.65625 C 10.367188 -8.007812 10.6875 -7.109375 10.6875 -5.953125 L 10.6875 0 L 8.625 0 L 8.625 -5.375 C 8.625 -6.101562 8.414062 -6.671875 8 -7.078125 C 7.59375 -7.492188 7.03125 -7.703125 6.3125 -7.703125 C 5.550781 -7.691406 4.925781 -7.445312 4.4375 -6.96875 C 3.945312 -6.488281 3.664062 -5.863281 3.59375 -5.09375 L 3.59375 0 L 1.53125 0 L 1.53125 -9.578125 L 3.59375 -9.578125 L 3.59375 -7.734375 C 4.25 -9.003906 5.425781 -9.640625 7.125 -9.640625 Z M 7.125 -9.640625 "/></g></g></g><g fill="#000000" fill-opacity="1"><g transform="translate(292.24845, 75.300017)"><g><path d="M 6.421875 -2.203125 L 6.953125 -0.609375 C 6.160156 -0.140625 5.375 0.09375 4.59375 0.09375 C 3.8125 0.09375 3.164062 -0.140625 2.65625 -0.609375 C 2.15625 -1.078125 1.90625 -1.773438 1.90625 -2.703125 L 1.90625 -7.671875 L 0.5625 -7.671875 L 0.5625 -9.21875 L 1.90625 -9.21875 L 1.90625 -11.84375 L 3.953125 -11.84375 L 3.953125 -9.21875 L 6.78125 -9.21875 L 6.78125 -7.671875 L 3.953125 -7.671875 L 3.953125 -3.078125 C 3.953125 -2.597656 4.035156 -2.257812 4.203125 -2.0625 C 4.378906 -1.875 4.640625 -1.78125 4.984375 -1.78125 C 5.367188 -1.78125 5.847656 -1.921875 6.421875 -2.203125 Z M 6.421875 -2.203125 "/></g></g></g><g fill="#000000" fill-opacity="1"><g transform="translate(299.57443, 75.300017)"><g><path d="M 5.46875 -9.640625 C 7.113281 -9.640625 8.304688 -9.144531 9.046875 -8.15625 C 9.785156 -7.164062 10.085938 -5.78125 9.953125 -4 L 2.71875 -4 C 2.882812 -3.25 3.226562 -2.660156 3.75 -2.234375 C 4.28125 -1.816406 4.925781 -1.609375 5.6875 -1.609375 C 6.769531 -1.609375 7.671875 -1.976562 8.390625 -2.71875 L 9.484375 -1.546875 C 8.503906 -0.460938 7.1875 0.078125 5.53125 0.078125 C 4.050781 0.078125 2.863281 -0.367188 1.96875 -1.265625 C 1.070312 -2.160156 0.625 -3.328125 0.625 -4.765625 C 0.625 -6.210938 1.070312 -7.382812 1.96875 -8.28125 C 2.875 -9.175781 4.039062 -9.628906 5.46875 -9.640625 Z M 2.6875 -5.515625 L 8.15625 -5.515625 C 8.113281 -6.273438 7.851562 -6.875 7.375 -7.3125 C 6.894531 -7.757812 6.265625 -7.984375 5.484375 -7.984375 C 4.734375 -7.984375 4.109375 -7.757812 3.609375 -7.3125 C 3.109375 -6.875 2.800781 -6.273438 2.6875 -5.515625 Z M 2.6875 -5.515625 "/></g></g></g><g fill="#000000" fill-opacity="1"><g transform="translate(310.158395, 75.300017)"><g><path d="M 3.59375 -9.578125 L 3.59375 -7.671875 C 4.257812 -8.984375 5.363281 -9.640625 6.90625 -9.640625 L 6.90625 -7.671875 C 5.957031 -7.710938 5.1875 -7.488281 4.59375 -7 C 4.007812 -6.507812 3.675781 -5.84375 3.59375 -5 L 3.59375 0 L 1.53125 0 L 1.53125 -9.578125 Z M 3.59375 -9.578125 "/></g></g></g><g fill="#000000" fill-opacity="1"><g transform="translate(317.250379, 75.300017)"><g><path d="M 7.03125 -9.640625 C 8.394531 -9.640625 9.5 -9.1875 10.34375 -8.28125 C 11.1875 -7.382812 11.609375 -6.207031 11.609375 -4.75 C 11.609375 -3.3125 11.191406 -2.144531 10.359375 -1.25 C 9.535156 -0.363281 8.441406 0.078125 7.078125 0.078125 C 5.535156 0.078125 4.40625 -0.5 3.6875 -1.65625 L 3.6875 3.484375 L 1.625 3.484375 L 1.625 -9.578125 L 3.6875 -9.578125 L 3.6875 -7.921875 C 4.40625 -9.066406 5.519531 -9.640625 7.03125 -9.640625 Z M 4.5 -2.5625 C 5.050781 -1.976562 5.753906 -1.6875 6.609375 -1.6875 C 7.460938 -1.6875 8.160156 -1.976562 8.703125 -2.5625 C 9.242188 -3.144531 9.515625 -3.898438 9.515625 -4.828125 C 9.515625 -5.722656 9.242188 -6.460938 8.703125 -7.046875 C 8.160156 -7.628906 7.460938 -7.921875 6.609375 -7.921875 C 5.753906 -7.921875 5.050781 -7.628906 4.5 -7.046875 C 3.957031 -6.460938 3.6875 -5.722656 3.6875 -4.828125 C 3.6875 -3.898438 3.957031 -3.144531 4.5 -2.5625 Z M 4.5 -2.5625 "/></g></g></g><g fill="#000000" fill-opacity="1"><g transform="translate(329.490338, 75.300017)"><g><path d="M 3.59375 -9.578125 L 3.59375 -7.671875 C 4.257812 -8.984375 5.363281 -9.640625 6.90625 -9.640625 L 6.90625 -7.671875 C 5.957031 -7.710938 5.1875 -7.488281 4.59375 -7 C 4.007812 -6.507812 3.675781 -5.84375 3.59375 -5 L 3.59375 0 L 1.53125 0 L 1.53125 -9.578125 Z M 3.59375 -9.578125 "/></g></g></g><g fill="#000000" fill-opacity="1"><g transform="translate(336.582321, 75.300017)"><g><path d="M 5.46875 -9.640625 C 7.113281 -9.640625 8.304688 -9.144531 9.046875 -8.15625 C 9.785156 -7.164062 10.085938 -5.78125 9.953125 -4 L 2.71875 -4 C 2.882812 -3.25 3.226562 -2.660156 3.75 -2.234375 C 4.28125 -1.816406 4.925781 -1.609375 5.6875 -1.609375 C 6.769531 -1.609375 7.671875 -1.976562 8.390625 -2.71875 L 9.484375 -1.546875 C 8.503906 -0.460938 7.1875 0.078125 5.53125 0.078125 C 4.050781 0.078125 2.863281 -0.367188 1.96875 -1.265625 C 1.070312 -2.160156 0.625 -3.328125 0.625 -4.765625 C 0.625 -6.210938 1.070312 -7.382812 1.96875 -8.28125 C 2.875 -9.175781 4.039062 -9.628906 5.46875 -9.640625 Z M 2.6875 -5.515625 L 8.15625 -5.515625 C 8.113281 -6.273438 7.851562 -6.875 7.375 -7.3125 C 6.894531 -7.757812 6.265625 -7.984375 5.484375 -7.984375 C 4.734375 -7.984375 4.109375 -7.757812 3.609375 -7.3125 C 3.109375 -6.875 2.800781 -6.273438 2.6875 -5.515625 Z M 2.6875 -5.515625 "/></g></g></g><g fill="#000000" fill-opacity="1"><g transform="translate(347.166286, 75.300017)"><g><path d="M 6.421875 -2.203125 L 6.953125 -0.609375 C 6.160156 -0.140625 5.375 0.09375 4.59375 0.09375 C 3.8125 0.09375 3.164062 -0.140625 2.65625 -0.609375 C 2.15625 -1.078125 1.90625 -1.773438 1.90625 -2.703125 L 1.90625 -7.671875 L 0.5625 -7.671875 L 0.5625 -9.21875 L 1.90625 -9.21875 L 1.90625 -11.84375 L 3.953125 -11.84375 L 3.953125 -9.21875 L 6.78125 -9.21875 L 6.78125 -7.671875 L 3.953125 -7.671875 L 3.953125 -3.078125 C 3.953125 -2.597656 4.035156 -2.257812 4.203125 -2.0625 C 4.378906 -1.875 4.640625 -1.78125 4.984375 -1.78125 C 5.367188 -1.78125 5.847656 -1.921875 6.421875 -2.203125 Z M 6.421875 -2.203125 "/></g></g></g><g fill="#000000" fill-opacity="1"><g transform="translate(354.492267, 75.300017)"><g><path d="M 5.46875 -9.640625 C 7.113281 -9.640625 8.304688 -9.144531 9.046875 -8.15625 C 9.785156 -7.164062 10.085938 -5.78125 9.953125 -4 L 2.71875 -4 C 2.882812 -3.25 3.226562 -2.660156 3.75 -2.234375 C 4.28125 -1.816406 4.925781 -1.609375 5.6875 -1.609375 C 6.769531 -1.609375 7.671875 -1.976562 8.390625 -2.71875 L 9.484375 -1.546875 C 8.503906 -0.460938 7.1875 0.078125 5.53125 0.078125 C 4.050781 0.078125 2.863281 -0.367188 1.96875 -1.265625 C 1.070312 -2.160156 0.625 -3.328125 0.625 -4.765625 C 0.625 -6.210938 1.070312 -7.382812 1.96875 -8.28125 C 2.875 -9.175781 4.039062 -9.628906 5.46875 -9.640625 Z M 2.6875 -5.515625 L 8.15625 -5.515625 C 8.113281 -6.273438 7.851562 -6.875 7.375 -7.3125 C 6.894531 -7.757812 6.265625 -7.984375 5.484375 -7.984375 C 4.734375 -7.984375 4.109375 -7.757812 3.609375 -7.3125 C 3.109375 -6.875 2.800781 -6.273438 2.6875 -5.515625 Z M 2.6875 -5.515625 "/></g></g></g><g fill="#000000" fill-opacity="1"><g transform="translate(365.076232, 75.300017)"><g><path d="M 3.59375 -9.578125 L 3.59375 -7.671875 C 4.257812 -8.984375 5.363281 -9.640625 6.90625 -9.640625 L 6.90625 -7.671875 C 5.957031 -7.710938 5.1875 -7.488281 4.59375 -7 C 4.007812 -6.507812 3.675781 -5.84375 3.59375 -5 L 3.59375 0 L 1.53125 0 L 1.53125 -9.578125 Z M 3.59375 -9.578125 "/></g></g></g><g fill="#000000" fill-opacity="1"><g transform="translate(372.168216, 75.300017)"><g/></g></g><g fill="#000000" fill-opacity="1"><g transform="translate(376.812205, 75.300017)"><g><path d="M 1.65625 -12.59375 L 6.671875 -12.59375 C 8.253906 -12.59375 9.476562 -12.21875 10.34375 -11.46875 C 11.21875 -10.71875 11.65625 -9.660156 11.65625 -8.296875 C 11.65625 -6.867188 11.21875 -5.757812 10.34375 -4.96875 C 9.476562 -4.1875 8.253906 -3.796875 6.671875 -3.796875 L 3.78125 -3.796875 L 3.78125 0 L 1.65625 0 Z M 3.78125 -10.6875 L 3.78125 -5.703125 L 6.59375 -5.703125 C 8.613281 -5.703125 9.625 -6.550781 9.625 -8.25 C 9.625 -9.875 8.613281 -10.6875 6.59375 -10.6875 Z M 3.78125 -10.6875 "/></g></g></g><g fill="#000000" fill-opacity="1"><g transform="translate(388.926165, 75.300017)"><g><path d="M 5.46875 -9.640625 C 7.113281 -9.640625 8.304688 -9.144531 9.046875 -8.15625 C 9.785156 -7.164062 10.085938 -5.78125 9.953125 -4 L 2.71875 -4 C 2.882812 -3.25 3.226562 -2.660156 3.75 -2.234375 C 4.28125 -1.816406 4.925781 -1.609375 5.6875 -1.609375 C 6.769531 -1.609375 7.671875 -1.976562 8.390625 -2.71875 L 9.484375 -1.546875 C 8.503906 -0.460938 7.1875 0.078125 5.53125 0.078125 C 4.050781 0.078125 2.863281 -0.367188 1.96875 -1.265625 C 1.070312 -2.160156 0.625 -3.328125 0.625 -4.765625 C 0.625 -6.210938 1.070312 -7.382812 1.96875 -8.28125 C 2.875 -9.175781 4.039062 -9.628906 5.46875 -9.640625 Z M 2.6875 -5.515625 L 8.15625 -5.515625 C 8.113281 -6.273438 7.851562 -6.875 7.375 -7.3125 C 6.894531 -7.757812 6.265625 -7.984375 5.484375 -7.984375 C 4.734375 -7.984375 4.109375 -7.757812 3.609375 -7.3125 C 3.109375 -6.875 2.800781 -6.273438 2.6875 -5.515625 Z M 2.6875 -5.515625 "/></g></g></g><g fill="#000000" fill-opacity="1"><g transform="translate(399.510129, 75.300017)"><g><path d="M 3.59375 -9.578125 L 3.59375 -7.671875 C 4.257812 -8.984375 5.363281 -9.640625 6.90625 -9.640625 L 6.90625 -7.671875 C 5.957031 -7.710938 5.1875 -7.488281 4.59375 -7 C 4.007812 -6.507812 3.675781 -5.84375 3.59375 -5 L 3.59375 0 L 1.53125 0 L 1.53125 -9.578125 Z M 3.59375 -9.578125 "/></g></g></g><g fill="#000000" fill-opacity="1"><g transform="translate(406.602113, 75.300017)"><g><path d="M 5.28125 -11.640625 C 4.90625 -11.640625 4.59375 -11.53125 4.34375 -11.3125 C 4.101562 -11.101562 3.984375 -10.78125 3.984375 -10.34375 L 3.984375 -9.21875 L 6.484375 -9.21875 L 6.484375 -7.671875 L 3.984375 -7.671875 L 3.984375 0 L 1.921875 0 L 1.921875 -7.671875 L 0.671875 -7.671875 L 0.671875 -9.21875 L 1.921875 -9.21875 L 1.921875 -10.15625 C 1.921875 -11.207031 2.242188 -12.019531 2.890625 -12.59375 C 3.546875 -13.164062 4.320312 -13.453125 5.21875 -13.453125 C 6.0625 -13.453125 6.78125 -13.226562 7.375 -12.78125 L 6.59375 -11.203125 C 6.175781 -11.492188 5.738281 -11.640625 5.28125 -11.640625 Z M 5.28125 -11.640625 "/></g></g></g><g fill="#000000" fill-opacity="1"><g transform="translate(412.776097, 75.300017)"><g><path d="M 5.640625 -9.640625 C 7.109375 -9.640625 8.304688 -9.191406 9.234375 -8.296875 C 10.160156 -7.410156 10.625 -6.238281 10.625 -4.78125 C 10.625 -3.34375 10.160156 -2.171875 9.234375 -1.265625 C 8.304688 -0.367188 7.109375 0.078125 5.640625 0.078125 C 4.148438 0.078125 2.941406 -0.367188 2.015625 -1.265625 C 1.085938 -2.171875 0.625 -3.34375 0.625 -4.78125 C 0.625 -6.238281 1.085938 -7.410156 2.015625 -8.296875 C 2.941406 -9.191406 4.148438 -9.640625 5.640625 -9.640625 Z M 5.640625 -7.859375 C 4.773438 -7.859375 4.066406 -7.570312 3.515625 -7 C 2.972656 -6.425781 2.703125 -5.679688 2.703125 -4.765625 C 2.703125 -3.847656 2.972656 -3.097656 3.515625 -2.515625 C 4.066406 -1.941406 4.773438 -1.65625 5.640625 -1.65625 C 6.503906 -1.65625 7.203125 -1.941406 7.734375 -2.515625 C 8.273438 -3.097656 8.546875 -3.847656 8.546875 -4.765625 C 8.546875 -5.679688 8.269531 -6.425781 7.71875 -7 C 7.175781 -7.570312 6.484375 -7.859375 5.640625 -7.859375 Z M 5.640625 -7.859375 "/></g></g></g><g fill="#000000" fill-opacity="1"><g transform="translate(424.026062, 75.300017)"><g><path d="M 3.59375 -9.578125 L 3.59375 -7.671875 C 4.257812 -8.984375 5.363281 -9.640625 6.90625 -9.640625 L 6.90625 -7.671875 C 5.957031 -7.710938 5.1875 -7.488281 4.59375 -7 C 4.007812 -6.507812 3.675781 -5.84375 3.59375 -5 L 3.59375 0 L 1.53125 0 L 1.53125 -9.578125 Z M 3.59375 -9.578125 "/></g></g></g><g fill="#000000" fill-opacity="1"><g transform="translate(431.118046, 75.300017)"><g><path d="M 14.015625 -9.640625 C 15.109375 -9.640625 15.96875 -9.3125 16.59375 -8.65625 C 17.21875 -8 17.53125 -7.097656 17.53125 -5.953125 L 17.53125 0 L 15.46875 0 L 15.46875 -5.375 C 15.46875 -6.113281 15.265625 -6.6875 14.859375 -7.09375 C 14.453125 -7.507812 13.894531 -7.71875 13.1875 -7.71875 C 12.382812 -7.695312 11.742188 -7.40625 11.265625 -6.84375 C 10.796875 -6.289062 10.5625 -5.585938 10.5625 -4.734375 L 10.5625 0 L 8.5 0 L 8.5 -5.375 C 8.5 -6.113281 8.296875 -6.6875 7.890625 -7.09375 C 7.492188 -7.507812 6.945312 -7.71875 6.25 -7.71875 C 5.425781 -7.695312 4.773438 -7.40625 4.296875 -6.84375 C 3.816406 -6.289062 3.578125 -5.585938 3.578125 -4.734375 L 3.578125 0 L 1.53125 0 L 1.53125 -9.578125 L 3.578125 -9.578125 L 3.578125 -7.71875 C 4.210938 -9 5.375 -9.640625 7.0625 -9.640625 C 7.90625 -9.640625 8.613281 -9.4375 9.1875 -9.03125 C 9.757812 -8.632812 10.160156 -8.070312 10.390625 -7.34375 C 10.972656 -8.875 12.179688 -9.640625 14.015625 -9.640625 Z M 14.015625 -9.640625 "/></g></g></g><g fill="#000000" fill-opacity="1"><g transform="translate(449.891986, 75.300017)"><g><path d="M 7.265625 0 L 7.265625 -1.171875 C 6.585938 -0.328125 5.535156 0.09375 4.109375 0.09375 C 3.085938 0.09375 2.269531 -0.179688 1.65625 -0.734375 C 1.039062 -1.296875 0.734375 -2.007812 0.734375 -2.875 C 0.734375 -3.75 1.050781 -4.441406 1.6875 -4.953125 C 2.320312 -5.472656 3.210938 -5.742188 4.359375 -5.765625 L 7.25 -5.765625 L 7.25 -6.046875 C 7.25 -6.660156 7.050781 -7.132812 6.65625 -7.46875 C 6.269531 -7.800781 5.707031 -7.96875 4.96875 -7.96875 C 4.039062 -7.96875 3.097656 -7.644531 2.140625 -7 L 1.296875 -8.4375 C 2.023438 -8.875 2.679688 -9.179688 3.265625 -9.359375 C 3.847656 -9.546875 4.566406 -9.640625 5.421875 -9.640625 C 6.640625 -9.640625 7.582031 -9.34375 8.25 -8.75 C 8.925781 -8.15625 9.269531 -7.332031 9.28125 -6.28125 L 9.3125 0 Z M 4.53125 -1.546875 C 5.269531 -1.546875 5.890625 -1.71875 6.390625 -2.0625 C 6.898438 -2.40625 7.1875 -2.835938 7.25 -3.359375 L 7.25 -4.25 L 4.65625 -4.25 C 3.976562 -4.25 3.476562 -4.148438 3.15625 -3.953125 C 2.84375 -3.753906 2.6875 -3.425781 2.6875 -2.96875 C 2.6875 -2.539062 2.847656 -2.195312 3.171875 -1.9375 C 3.503906 -1.675781 3.957031 -1.546875 4.53125 -1.546875 Z M 4.53125 -1.546875 "/></g></g></g><g fill="#000000" fill-opacity="1"><g transform="translate(460.439959, 75.300017)"><g><path d="M 7.125 -9.640625 C 8.238281 -9.640625 9.109375 -9.3125 9.734375 -8.65625 C 10.367188 -8.007812 10.6875 -7.109375 10.6875 -5.953125 L 10.6875 0 L 8.625 0 L 8.625 -5.375 C 8.625 -6.101562 8.414062 -6.671875 8 -7.078125 C 7.59375 -7.492188 7.03125 -7.703125 6.3125 -7.703125 C 5.550781 -7.691406 4.925781 -7.445312 4.4375 -6.96875 C 3.945312 -6.488281 3.664062 -5.863281 3.59375 -5.09375 L 3.59375 0 L 1.53125 0 L 1.53125 -9.578125 L 3.59375 -9.578125 L 3.59375 -7.734375 C 4.25 -9.003906 5.425781 -9.640625 7.125 -9.640625 Z M 7.125 -9.640625 "/></g></g></g><g fill="#000000" fill-opacity="1"><g transform="translate(472.373938, 75.300017)"><g><path d="M 5.453125 -9.640625 C 7.179688 -9.640625 8.5 -9.117188 9.40625 -8.078125 L 8.28125 -6.75 C 7.5625 -7.476562 6.648438 -7.835938 5.546875 -7.828125 C 4.710938 -7.828125 4.03125 -7.539062 3.5 -6.96875 C 2.96875 -6.40625 2.703125 -5.671875 2.703125 -4.765625 C 2.703125 -3.867188 2.96875 -3.132812 3.5 -2.5625 C 4.03125 -1.988281 4.710938 -1.703125 5.546875 -1.703125 C 6.765625 -1.703125 7.707031 -2.085938 8.375 -2.859375 L 9.515625 -1.703125 C 8.617188 -0.515625 7.265625 0.078125 5.453125 0.078125 C 4.023438 0.078125 2.863281 -0.367188 1.96875 -1.265625 C 1.070312 -2.160156 0.625 -3.328125 0.625 -4.765625 C 0.625 -6.222656 1.070312 -7.398438 1.96875 -8.296875 C 2.863281 -9.191406 4.023438 -9.640625 5.453125 -9.640625 Z M 5.453125 -9.640625 "/></g></g></g><g fill="#000000" fill-opacity="1"><g transform="translate(482.525899, 75.300017)"><g><path d="M 5.46875 -9.640625 C 7.113281 -9.640625 8.304688 -9.144531 9.046875 -8.15625 C 9.785156 -7.164062 10.085938 -5.78125 9.953125 -4 L 2.71875 -4 C 2.882812 -3.25 3.226562 -2.660156 3.75 -2.234375 C 4.28125 -1.816406 4.925781 -1.609375 5.6875 -1.609375 C 6.769531 -1.609375 7.671875 -1.976562 8.390625 -2.71875 L 9.484375 -1.546875 C 8.503906 -0.460938 7.1875 0.078125 5.53125 0.078125 C 4.050781 0.078125 2.863281 -0.367188 1.96875 -1.265625 C 1.070312 -2.160156 0.625 -3.328125 0.625 -4.765625 C 0.625 -6.210938 1.070312 -7.382812 1.96875 -8.28125 C 2.875 -9.175781 4.039062 -9.628906 5.46875 -9.640625 Z M 2.6875 -5.515625 L 8.15625 -5.515625 C 8.113281 -6.273438 7.851562 -6.875 7.375 -7.3125 C 6.894531 -7.757812 6.265625 -7.984375 5.484375 -7.984375 C 4.734375 -7.984375 4.109375 -7.757812 3.609375 -7.3125 C 3.109375 -6.875 2.800781 -6.273438 2.6875 -5.515625 Z M 2.6875 -5.515625 "/></g></g></g></svg>